<?xml version="1.0" encoding="utf-8"?>
<!-- Generator: Adobe Illustrator 19.0.0, SVG Export Plug-In . SVG Version: 6.00 Build 0)  -->
<svg version="1.1" id="Layer_1" xmlns="http://www.w3.org/2000/svg" xmlns:xlink="http://www.w3.org/1999/xlink" x="0px" y="0px"
	 viewBox="-91.8 358.7 845.2 84.2" style="enable-background:new -91.8 358.7 845.2 84.2;" xml:space="preserve">
<style type="text/css">
	.st0{fill:#2773AC;}
</style>
<g id="XMLID_344_">
	<path class="st0" d="M-57.9,382.3l-1.6,8.7h23.3l-3.5,20.1h-23.2l-4.6,26.1h-24.3l13.4-75.7h48.8l-3.6,20.8L-57.9,382.3
		L-57.9,382.3z M10,437.2l-10.4-27.7h-3l-4.7,27.7h-23.8l13.4-75.7h31c4.1,0,7.9,0.5,11.2,1.4c3.3,0.9,6.2,2.3,8.6,4.1
		s4.2,4,5.4,6.6c1.2,2.6,1.9,5.6,1.9,8.9c0,6.3-1.5,11.4-4.4,15.5c-3,4.1-7,6.8-12.1,8.3l14.8,30.9H10z M4.5,393.8
		c3.3,0,5.8-0.6,7.7-1.7c1.9-1.1,2.8-2.9,2.8-5.3c0-2.2-0.8-3.7-2.3-4.5s-3.6-1.2-6.3-1.2H1.8l-2.2,12.7H4.5z M42.7,437.2l13.4-75.7
		h49.5l-3.6,20.6H75.8l-1.3,7.3h25l-3.4,19.2h-25l-1.4,7.9H99l-3.6,20.6H42.7L42.7,437.2z M156.8,384c-1.2-1.4-2.8-2.6-4.7-3.5
		c-1.9-0.9-4.2-1.3-6.7-1.3c-2,0-3.8,0.4-5.4,1.3c-1.6,0.9-2.4,2.2-2.4,4c0,1.4,0.7,2.5,2,3.3s3.3,1.6,6,2.5
		c3.3,1.1,6.2,2.3,8.7,3.6c2.6,1.4,4.7,2.9,6.5,4.7s3.1,3.8,4.1,6.1s1.4,4.8,1.4,7.7c0,4.8-1.1,9-3.2,12.4s-4.8,6.2-8.1,8.3
		c-3.3,2.1-6.9,3.7-10.9,4.7s-7.9,1.5-11.6,1.5c-3,0-6-0.3-9-0.7c-3-0.5-5.9-1.2-8.6-2.1c-2.7-0.9-5.3-2.1-7.8-3.4
		c-2.4-1.4-4.5-2.9-6.3-4.6l16.9-15.6c0.9,1,1.9,1.9,3.1,2.7s2.5,1.4,3.8,2c1.3,0.5,2.7,1,4,1.3c1.4,0.3,2.6,0.5,3.7,0.5
		c2.5,0,4.5-0.4,6-1.2s2.2-2,2.2-3.6c0-1.3-0.6-2.4-1.9-3.4c-1.2-1-3.6-2-7-3.1c-2.7-0.9-5.3-1.9-7.6-3c-2.4-1.1-4.5-2.5-6.2-4.1
		s-3.1-3.5-4.1-5.8c-1-2.2-1.5-5-1.5-8.2c0-3.9,0.8-7.6,2.4-10.9c1.6-3.3,3.9-6.3,6.8-8.7c3-2.5,6.5-4.4,10.6-5.8
		c4.1-1.4,8.6-2.1,13.5-2.1c2.7,0,5.4,0.2,8,0.7s5.1,1.1,7.5,1.9c2.4,0.8,4.5,1.8,6.5,2.9c2,1.1,3.7,2.4,5,3.8L156.8,384L156.8,384z
		 M217.1,437.2l5.1-29.1h-21.6l-5.1,29.1h-24.7l13.4-75.7h24.6l-4.6,26h21.6l4.6-26h24.8l-13.4,75.7H217.1L217.1,437.2z
		 M255.8,437.2l13.4-75.7h24.9l-9.6,54.5h25.6l-3.7,21.2H255.8L255.8,437.2z M351.6,406.1l-5.5,31.1h-24.6l5.5-31.1l-20-44.6h27.5
		l8.1,23.4l16.1-23.4h30.2L351.6,406.1z M470.5,432.4c-2,1.3-4.2,2.5-6.7,3.5s-5.3,1.8-8.4,2.5s-6.5,1-10.3,1
		c-5.7,0-10.8-0.8-15.2-2.4c-4.5-1.6-8.2-3.8-11.3-6.7s-5.5-6.5-7.1-10.6s-2.5-8.7-2.5-13.8c0-6.5,1.1-12.5,3.4-18.2
		c2.2-5.6,5.4-10.5,9.5-14.8c4.1-4.2,8.9-7.5,14.4-9.9c5.6-2.4,11.7-3.6,18.3-3.6s12.3,1,17.3,3s8.8,4.5,11.4,7.5l-17.2,17.7
		c-1.3-1.9-3-3.2-5.1-4.1c-2.1-0.9-4.5-1.3-7.1-1.3c-2.7,0-5.2,0.6-7.4,1.7s-4.1,2.6-5.7,4.5c-1.6,1.9-2.8,4.1-3.6,6.6
		c-0.9,2.5-1.3,5.2-1.3,8c0,3.7,1.2,6.8,3.5,9.4c2.3,2.6,5.8,3.8,10.4,3.8c2.7,0,5.2-0.6,7.6-1.7c2.4-1.1,4.4-2.5,6.1-4.2l12.2,18.2
		C474.1,429.8,472.4,431.1,470.5,432.4L470.5,432.4z M548.2,421.6c-1.9,3.7-4.4,6.8-7.5,9.4c-3.1,2.6-6.8,4.6-11.2,6
		c-4.3,1.4-9.3,2.1-15,2.1c-4.8,0-9.3-0.5-13.3-1.6s-7.4-2.6-10.3-4.7c-2.9-2-5.1-4.5-6.6-7.4c-1.6-2.9-2.4-6.2-2.4-9.9
		c0-1,0.1-2.2,0.2-3.5c0.1-1.3,0.3-2.5,0.4-3.6l8-46.9H515l-7.8,43.7c-0.1,0.6-0.2,1.2-0.2,1.8v1.7c0,2.4,0.7,4.4,2.1,6.2
		c1.4,1.8,3.8,2.7,7.3,2.7c2.2,0,4-0.4,5.4-1.1c1.4-0.7,2.5-1.6,3.4-2.8c0.9-1.1,1.5-2.4,1.9-3.8c0.4-1.4,0.8-2.8,1.1-4.3l8-44.2
		h24.1l-8.2,47.9C551.4,413.9,550.1,417.9,548.2,421.6L548.2,421.6z M606.3,382.3l-9.6,54.9h-24.8l9.6-54.9h-19.1l3.7-20.8h62.4
		l-3.7,20.8H606.3L606.3,382.3z"/>
</g>
<path id="XMLID_1_" class="st0" d="M673.7,361.1l-21.8,22.4l50.5,58.9l50.5-58.9l-21.8-22.4H673.7L673.7,361.1z M728.4,364.1
	l-5.8,19l-16.8-19H728.4z M721.5,386.5L721.5,386.5c-5.6,0.5-11.9,0.8-19,0.8s-13.4-0.3-19-0.7v-0.1l19-21.6L721.5,386.5z
	 M699,364.1l-16.8,19l-5.8-19H699z M673.7,365.5l6.4,20.8c-11.6-1.1-19.5-2.7-23.2-3.6L673.7,365.5z M658.3,386.2
	c4.5,1,12.2,2.4,23,3.3l16.5,42.7L658.3,386.2z M684.7,389.8c5.3,0.4,11.2,0.6,17.8,0.6s12.5-0.2,17.8-0.6l-17.8,46L684.7,389.8
	L684.7,389.8z M707.1,432.3l16.5-42.7c10.7-0.9,18.4-2.3,23-3.3L707.1,432.3L707.1,432.3z M748,382.8c-3.7,0.9-11.6,2.5-23.2,3.6
	l6.4-20.8L748,382.8L748,382.8z"/>
<path class="st0" d="M702.4,442.9c-0.1,0-0.3-0.1-0.4-0.2l-50.5-58.9c-0.2-0.2-0.2-0.5,0-0.7l21.8-22.4c0.1-0.1,0.2-0.2,0.4-0.2
	h57.4c0.1,0,0.3,0.1,0.4,0.2l21.8,22.4c0.2,0.2,0.2,0.5,0,0.7l-50.5,58.9C702.7,442.9,702.6,442.9,702.4,442.9z M652.6,383.5
	l49.9,58.1l49.9-58.1l-21.4-22h-57L652.6,383.5L652.6,383.5z M702.4,436.3c-0.2,0-0.4-0.1-0.5-0.3l-17.8-46c-0.1-0.2,0-0.3,0.1-0.5
	s0.3-0.2,0.4-0.2c5.8,0.4,11.7,0.6,17.7,0.6c6.1,0,11.9-0.2,17.7-0.6c0.2,0,0.3,0.1,0.4,0.2c0.1,0.1,0.1,0.3,0.1,0.5l-17.8,46
	C702.8,436.2,702.6,436.3,702.4,436.3z M685.4,390.4l17,44.1l17-44.1c-5.6,0.4-11.2,0.5-17,0.5C696.7,390.9,691,390.7,685.4,390.4z
	 M697.8,432.8c-0.1,0-0.3-0.1-0.4-0.2l-39.5-46c-0.1-0.2-0.2-0.4,0-0.6c0.1-0.2,0.3-0.3,0.5-0.2c4.6,1,12.2,2.4,22.9,3.3
	c0.2,0,0.4,0.1,0.4,0.3l16.5,42.7c0.1,0.2,0,0.5-0.2,0.6C698,432.8,697.9,432.8,697.8,432.8L697.8,432.8z M659.6,387.1l36.6,42.7
	l-15.3-39.7C671.4,389.2,664.3,388,659.6,387.1z M707.1,432.8c-0.1,0-0.2,0-0.3-0.1c-0.2-0.1-0.3-0.4-0.2-0.6l16.5-42.7
	c0.1-0.2,0.2-0.3,0.4-0.3c10.7-0.9,18.4-2.3,22.9-3.3c0.2,0,0.4,0,0.5,0.2s0.1,0.4,0,0.6l-39.5,46
	C707.4,432.7,707.2,432.8,707.1,432.8L707.1,432.8z M723.9,390l-15.3,39.7l36.6-42.7C740.6,388,733.5,389.2,723.9,390z M702.4,387.9
	c-6.4,0-12.8-0.2-19-0.7c-0.2,0-0.4-0.1-0.4-0.3v-0.1c-0.1-0.2,0-0.4,0.1-0.5l19-21.6c0.2-0.2,0.6-0.2,0.8,0l19,21.6
	c0.1,0.1,0.2,0.3,0.1,0.5v0.1c-0.1,0.2-0.2,0.3-0.4,0.3C715.3,387.6,708.9,387.9,702.4,387.9L702.4,387.9z M684.3,386.2
	c11.8,0.9,24.4,0.9,36.2,0l-18.1-20.5L684.3,386.2z M724.8,386.9c-0.1,0-0.3-0.1-0.4-0.2c-0.1-0.1-0.1-0.3-0.1-0.5l6.4-20.8
	c0.1-0.2,0.2-0.3,0.4-0.3s0.4,0,0.5,0.1l16.8,17.2c0.1,0.1,0.2,0.3,0.1,0.5s-0.2,0.3-0.4,0.3C744.4,384.1,736.6,385.8,724.8,386.9z
	 M731.4,366.5l-5.9,19.3c10.4-1,17.7-2.4,21.5-3.3L731.4,366.5z M680.1,386.9c-11.8-1.1-19.6-2.7-23.3-3.6c-0.2,0-0.3-0.2-0.4-0.3
	c0-0.2,0-0.4,0.1-0.5l16.8-17.2c0.1-0.1,0.3-0.2,0.5-0.1c0.2,0,0.3,0.2,0.4,0.3l6.4,20.8c0,0.2,0,0.3-0.1,0.5L680.1,386.9z
	 M657.9,382.5c3.8,0.9,11.1,2.3,21.5,3.3l-5.9-19.3L657.9,382.5z M722.6,383.7c-0.1,0-0.3-0.1-0.4-0.2l-16.8-19
	c-0.1-0.1-0.2-0.4-0.1-0.5c0.1-0.2,0.3-0.3,0.5-0.3h22.6c0.2,0,0.3,0.1,0.4,0.2c0.1,0.1,0.1,0.3,0.1,0.4l-5.8,19
	C723,383.5,722.9,383.6,722.6,383.7L722.6,383.7z M706.9,364.6l15.4,17.5l5.4-17.5H706.9z M682.3,383.7L682.3,383.7
	c-0.3,0-0.4-0.2-0.5-0.3l-5.8-19c0-0.2,0-0.3,0.1-0.4c0.1-0.1,0.2-0.2,0.4-0.2h22.6c0.2,0,0.4,0.1,0.5,0.3s0,0.4-0.1,0.5l-16.8,19
	L682.3,383.7L682.3,383.7z M677.1,364.6l5.4,17.5l15.4-17.5H677.1L677.1,364.6z"/>
</svg>
