<svg xmlns="http://www.w3.org/2000/svg" viewBox="155 689.3 969.6 239.7" enable-background="new 155 689.3 969.6 239.7"><style type="text/css">.st0{fill:#E9F2FA;}</style><path class="st0" d="M2183.3 409.8l-1.6 8.7h23.3l-3.5 20.1h-23.2l-4.6 26.1h-24.3l13.4-75.7h48.8l-3.6 20.9-24.7-.1zM2251.2 464.7l-10.4-27.7h-3l-4.7 27.7h-23.8l13.4-75.7h31.1c4.1 0 7.9.5 11.2 1.4s6.2 2.3 8.6 4.1c2.4 1.8 4.2 4 5.4 6.6s1.9 5.6 1.9 8.9c0 6.3-1.5 11.4-4.4 15.5-3 4.1-7 6.8-12.1 8.3l14.8 30.9h-28zm-5.4-43.4c3.3 0 5.8-.6 7.7-1.7 1.9-1.1 2.8-2.9 2.8-5.3 0-2.2-.8-3.7-2.3-4.5s-3.6-1.2-6.3-1.2h-4.6l-2.2 12.7h4.9zM2283.9 464.7l13.4-75.7h49.5l-3.6 20.6h-26.2l-1.3 7.3h25l-3.4 19.2h-25l-1.4 7.9h29.3l-3.6 20.6h-52.7v.1zM2398 411.5c-1.2-1.4-2.8-2.6-4.7-3.5s-4.2-1.3-6.7-1.3c-2 0-3.8.4-5.4 1.3-1.6.9-2.4 2.2-2.4 4 0 1.4.7 2.5 2 3.3s3.3 1.6 6 2.5c3.3 1.1 6.2 2.3 8.7 3.6 2.6 1.4 4.7 2.9 6.5 4.7s3.1 3.8 4.1 6.1 1.4 4.8 1.4 7.7c0 4.8-1.1 9-3.2 12.4-2.1 3.4-4.8 6.2-8.1 8.3s-6.9 3.7-10.9 4.7-7.9 1.5-11.6 1.5c-3 0-6-.3-9-.7-3-.5-5.9-1.2-8.6-2.1-2.7-.9-5.3-2.1-7.8-3.4-2.4-1.4-4.5-2.9-6.3-4.6l16.9-15.6c.9 1 1.9 1.9 3.1 2.7 1.2.8 2.5 1.4 3.8 2 1.3.5 2.7 1 4 1.3 1.4.3 2.6.5 3.7.5 2.5 0 4.5-.4 6-1.2s2.2-2 2.2-3.6c0-1.3-.6-2.4-1.9-3.4-1.2-1-3.6-2-7-3.1-2.7-.9-5.3-1.9-7.6-3-2.4-1.1-4.5-2.5-6.2-4.1s-3.1-3.5-4.1-5.8c-1-2.2-1.5-5-1.5-8.2 0-3.9.8-7.6 2.4-10.9 1.6-3.4 3.9-6.3 6.8-8.7 3-2.5 6.5-4.4 10.6-5.8 4.1-1.4 8.6-2.1 13.5-2.1 2.7 0 5.4.2 8 .7s5.1 1.1 7.5 1.9c2.4.8 4.5 1.8 6.5 2.9 2 1.1 3.7 2.4 5 3.8l-15.7 15.2zM2458.4 464.7l5.1-29.1h-21.6l-5.1 29.1h-24.7l13.4-75.7h24.6l-4.6 26h21.6l4.6-26h24.8l-13.4 75.7h-24.7zM2497 464.7l13.4-75.7h24.9l-9.6 54.5h25.6l-3.7 21.2h-50.6zM2592.9 433.6l-5.5 31.1h-24.7l5.5-31.1-20-44.6h27.6l8.1 23.4 16.1-23.4h30.2l-37.3 44.6zM2711.7 459.9c-2 1.3-4.2 2.5-6.7 3.5s-5.3 1.8-8.4 2.5c-3.1.6-6.5 1-10.3 1-5.7 0-10.8-.8-15.2-2.4-4.5-1.6-8.2-3.8-11.3-6.7s-5.5-6.5-7.1-10.6-2.5-8.7-2.5-13.8c0-6.5 1.1-12.5 3.4-18.2 2.2-5.6 5.4-10.5 9.5-14.8 4.1-4.2 8.9-7.5 14.4-9.9 5.6-2.4 11.7-3.6 18.3-3.6s12.3 1 17.3 3 8.8 4.5 11.4 7.5l-17.2 17.7c-1.3-1.9-3-3.2-5.1-4.1-2.1-.9-4.5-1.3-7.1-1.3-2.7 0-5.2.6-7.4 1.7s-4.1 2.6-5.7 4.5c-1.6 1.9-2.8 4.1-3.6 6.6-.9 2.5-1.3 5.2-1.3 8 0 3.7 1.2 6.8 3.5 9.4 2.3 2.6 5.8 3.8 10.4 3.8 2.7 0 5.2-.6 7.6-1.7 2.4-1.1 4.4-2.5 6.1-4.2l12.2 18.2c-1.5 1.3-3.2 2.6-5.2 3.9zM2789.4 449.1c-1.9 3.7-4.4 6.8-7.5 9.4s-6.8 4.6-11.2 6c-4.3 1.4-9.3 2.1-15 2.1-4.8 0-9.3-.5-13.3-1.6s-7.4-2.6-10.3-4.7c-2.9-2-5.1-4.5-6.6-7.4-1.6-2.9-2.4-6.2-2.4-9.9 0-1 .1-2.2.2-3.5.1-1.3.3-2.5.4-3.6l8-46.9h24.5l-7.8 43.7c-.1.6-.2 1.2-.2 1.8v1.7c0 2.4.7 4.4 2.1 6.2 1.4 1.8 3.8 2.7 7.3 2.7 2.2 0 4-.4 5.4-1.1 1.4-.7 2.5-1.6 3.4-2.8.9-1.1 1.5-2.4 1.9-3.8.4-1.4.8-2.9 1.1-4.3l8-44.2h24.1l-8.2 47.9c-.7 4.6-2 8.7-3.9 12.3zM2847.5 409.8l-9.6 54.9h-24.8l9.6-54.9h-19.1l3.7-20.9h62.4l-3.7 20.9h-18.5zM2915 388.6l-21.8 22.4 50.5 58.9 50.5-58.9-21.8-22.4h-57.4zm54.6 3l-5.8 19-16.8-19h22.6zm-6.9 22.5c-5.6.5-11.9.8-19 .8s-13.4-.3-19-.7v-.1l19-21.6 19 21.6zm-22.4-22.5l-16.8 19-5.8-19h22.6zm-25.4 1.4l6.4 20.8c-11.6-1.1-19.5-2.7-23.2-3.6l16.8-17.2zm-15.4 20.8c4.5 1 12.2 2.4 23 3.3l16.5 42.7-39.5-46zm26.4 3.5c5.3.4 11.2.6 17.8.6s12.5-.2 17.8-.6l-17.8 46-17.8-46zm22.4 42.5l16.5-42.7c10.7-.9 18.4-2.3 23-3.3l-39.5 46zm40.9-49.5c-3.7.9-11.6 2.5-23.2 3.6l6.4-20.8 16.8 17.2zM2943.7 470.4c-.1 0-.3-.1-.4-.2l-50.5-58.9c-.2-.2-.2-.5 0-.7l21.8-22.4c.1-.1.2-.2.4-.2h57.4c.1 0 .3.1.4.2l21.8 22.4c.2.2.2.5 0 .7l-50.6 59c0 .1-.2.1-.3.1zm-49.9-59.4l49.9 58.1 49.9-58.1-21.4-22h-57l-21.4 22zm49.9 52.8c-.2 0-.4-.1-.5-.3l-17.8-46c-.1-.2 0-.3.1-.5s.3-.2.4-.2c5.8.4 11.7.6 17.7.6s11.8-.2 17.7-.6c.2 0 .3.1.4.2s.1.3.1.5l-17.8 46c.1.2-.1.3-.3.3zm-17.1-45.9l17 44.1 17-44.1c-5.6.4-11.2.5-17 .5-5.7 0-11.4-.2-17-.5zm12.4 42.4c-.1 0-.3-.1-.4-.2l-39.5-46c-.1-.2-.2-.4 0-.6s.3-.3.5-.2c4.5 1 12.2 2.4 22.9 3.3.2 0 .4.1.4.3l16.5 42.7c.1.2 0 .5-.2.6 0 .1-.1.1-.2.1zm-38.1-45.7l36.6 42.7-15.3-39.7c-9.6-.9-16.7-2.1-21.3-3zm47.4 45.7c-.1 0-.2 0-.3-.1-.2-.1-.3-.4-.2-.6l16.5-42.7c.1-.2.2-.3.4-.3 10.7-.9 18.4-2.3 22.9-3.3.2 0 .4 0 .5.2s.1.4 0 .6l-39.5 46c0 .1-.1.2-.3.2zm16.9-42.7l-15.3 39.7 36.6-42.7c-4.7.9-11.8 2.1-21.3 3zm-21.5-2.2c-6.4 0-12.8-.2-19-.7-.2 0-.4-.1-.4-.3v-.1c-.1-.2 0-.4.1-.5l19-21.6c.2-.2.6-.2.8 0l19 21.6c.1.1.2.3.1.5v.1c-.1.2-.2.3-.4.3-6.4.4-12.8.7-19.2.7zm-18.1-1.7c11.8.9 24.4.9 36.2 0l-18.1-20.5-18.1 20.5zm40.4.7c-.1 0-.3-.1-.4-.2-.1-.1-.1-.3-.1-.5l6.4-20.8c.1-.2.2-.3.4-.3s.4 0 .5.1l16.8 17.2c.1.1.2.3.1.5 0 .2-.2.3-.4.3-3.6.9-11.5 2.6-23.3 3.7zm6.7-20.4l-5.9 19.3c10.4-1 17.7-2.4 21.5-3.3l-15.6-16zm-51.4 20.4c-11.8-1.1-19.6-2.7-23.3-3.6-.2 0-.3-.2-.4-.3 0-.2 0-.4.1-.5l16.8-17.2c.1-.1.3-.2.5-.1.2 0 .3.2.4.3l6.4 20.8c0 .2 0 .3-.1.5l-.4.1zm-22.2-4.4c3.8.9 11 2.3 21.5 3.3l-5.9-19.3-15.6 16zm64.7 1.2c-.1 0-.3-.1-.4-.2l-16.8-19c-.1-.1-.2-.4-.1-.5.1-.2.3-.3.5-.3h22.6c.2 0 .3.1.4.2.1.1.1.3.1.4l-5.8 19c-.1.2-.2.3-.4.3 0 .1-.1.1-.1.1zm-15.6-19.1l15.4 17.5 5.4-17.5h-20.8zm-24.7 19.1h-.1c-.2 0-.3-.2-.4-.3l-5.8-19c0-.2 0-.3.1-.4.1-.1.2-.2.4-.2h22.6c.2 0 .4.1.5.3s0 .4-.1.5l-16.8 19c-.1 0-.2.1-.4.1zm-5.1-19.1l5.4 17.5 15.4-17.5h-20.8z"/><g id="XMLID_344_"><path class="st0" d="M251.6 790.9l-1.6 8.7h23.3l-3.5 20.1h-23.2l-4.6 26.1h-24.3l13.4-75.7h48.8l-3.6 20.8h-24.7zM319.5 845.8l-10.4-27.7h-3l-4.7 27.7h-23.8l13.4-75.7h31c4.1 0 7.9.5 11.2 1.4 3.3.9 6.2 2.3 8.6 4.1 2.4 1.8 4.2 4 5.4 6.6 1.2 2.6 1.9 5.6 1.9 8.9 0 6.3-1.5 11.4-4.4 15.5-3 4.1-7 6.8-12.1 8.3l14.8 30.9h-27.9zm-5.5-43.4c3.3 0 5.8-.6 7.7-1.7 1.9-1.1 2.8-2.9 2.8-5.3 0-2.2-.8-3.7-2.3-4.5-1.5-.8-3.6-1.2-6.3-1.2h-4.6l-2.2 12.7h4.9zM352.2 845.8l13.4-75.7h49.5l-3.6 20.6h-26.2l-1.3 7.3h25l-3.4 19.2h-25l-1.4 7.9h29.3l-3.6 20.6h-52.7zM466.3 792.6c-1.2-1.4-2.8-2.6-4.7-3.5-1.9-.9-4.2-1.3-6.7-1.3-2 0-3.8.4-5.4 1.3-1.6.9-2.4 2.2-2.4 4 0 1.4.7 2.5 2 3.3 1.3.8 3.3 1.6 6 2.5 3.3 1.1 6.2 2.3 8.7 3.6 2.6 1.4 4.7 2.9 6.5 4.7 1.8 1.8 3.1 3.8 4.1 6.1 1 2.3 1.4 4.8 1.4 7.7 0 4.8-1.1 9-3.2 12.4-2.1 3.4-4.8 6.2-8.1 8.3-3.3 2.1-6.9 3.7-10.9 4.7s-7.9 1.5-11.6 1.5c-3 0-6-.3-9-.7-3-.5-5.9-1.2-8.6-2.1-2.7-.9-5.3-2.1-7.8-3.4-2.4-1.4-4.5-2.9-6.3-4.6l16.9-15.6c.9 1 1.9 1.9 3.1 2.7 1.2.8 2.5 1.4 3.8 2 1.3.5 2.7 1 4 1.3 1.4.3 2.6.5 3.7.5 2.5 0 4.5-.4 6-1.2 1.5-.8 2.2-2 2.2-3.6 0-1.3-.6-2.4-1.9-3.4-1.2-1-3.6-2-7-3.1-2.7-.9-5.3-1.9-7.6-3-2.4-1.1-4.5-2.5-6.2-4.1-1.7-1.6-3.1-3.5-4.1-5.8-1-2.2-1.5-5-1.5-8.2 0-3.9.8-7.6 2.4-10.9 1.6-3.3 3.9-6.3 6.8-8.7 3-2.5 6.5-4.4 10.6-5.8 4.1-1.4 8.6-2.1 13.5-2.1 2.7 0 5.4.2 8 .7 2.6.5 5.1 1.1 7.5 1.9 2.4.8 4.5 1.8 6.5 2.9 2 1.1 3.7 2.4 5 3.8l-15.7 15.2zM526.6 845.8l5.1-29.1h-21.6l-5.1 29.1h-24.7l13.4-75.7h24.6l-4.6 26h21.6l4.6-26h24.8l-13.4 75.7h-24.7zM565.3 845.8l13.4-75.7h24.9l-9.6 54.5h25.6l-3.7 21.2h-50.6zM661.1 814.7l-5.5 31.1h-24.6l5.5-31.1-20-44.6h27.5l8.1 23.4 16.1-23.4h30.2l-37.3 44.6zM780 841c-2 1.3-4.2 2.5-6.7 3.5s-5.3 1.8-8.4 2.5-6.5 1-10.3 1c-5.7 0-10.8-.8-15.2-2.4-4.5-1.6-8.2-3.8-11.3-6.7-3.1-2.9-5.5-6.5-7.1-10.6-1.6-4.1-2.5-8.7-2.5-13.8 0-6.5 1.1-12.5 3.4-18.2 2.2-5.6 5.4-10.5 9.5-14.8 4.1-4.2 8.9-7.5 14.4-9.9 5.6-2.4 11.7-3.6 18.3-3.6 6.6 0 12.3 1 17.3 3s8.8 4.5 11.4 7.5l-17.2 17.7c-1.3-1.9-3-3.2-5.1-4.1-2.1-.9-4.5-1.3-7.1-1.3-2.7 0-5.2.6-7.4 1.7s-4.1 2.6-5.7 4.5c-1.6 1.9-2.8 4.1-3.6 6.6-.9 2.5-1.3 5.2-1.3 8 0 3.7 1.2 6.8 3.5 9.4 2.3 2.6 5.8 3.8 10.4 3.8 2.7 0 5.2-.6 7.6-1.7 2.4-1.1 4.4-2.5 6.1-4.2l12.2 18.2c-1.6 1.3-3.3 2.6-5.2 3.9zM857.7 830.2c-1.9 3.7-4.4 6.8-7.5 9.4-3.1 2.6-6.8 4.6-11.2 6-4.3 1.4-9.3 2.1-15 2.1-4.8 0-9.3-.5-13.3-1.6s-7.4-2.6-10.3-4.7c-2.9-2-5.1-4.5-6.6-7.4-1.6-2.9-2.4-6.2-2.4-9.9 0-1 .1-2.2.2-3.5.1-1.3.3-2.5.4-3.6l8-46.9h24.5l-7.8 43.7c-.1.6-.2 1.2-.2 1.8v1.7c0 2.4.7 4.4 2.1 6.2 1.4 1.8 3.8 2.7 7.3 2.7 2.2 0 4-.4 5.4-1.1 1.4-.7 2.5-1.6 3.4-2.8.9-1.1 1.5-2.4 1.9-3.8.4-1.4.8-2.8 1.1-4.3l8-44.2h24.1l-8.2 47.9c-.7 4.6-2 8.6-3.9 12.3zM915.8 790.9l-9.6 54.9h-24.8l9.6-54.9h-19.1l3.7-20.8h62.4l-3.7 20.8h-18.5z"/></g><path id="XMLID_1_" class="st0" d="M983.2 769.7l-21.8 22.4 50.5 58.9 50.5-58.9-21.8-22.4h-57.4zm54.7 3l-5.8 19-16.8-19h22.6zm-6.9 22.4v.1c-5.6.4-11.9.7-19 .7s-13.4-.3-19-.7v-.1l19-21.6 19 21.6zm-22.5-22.4l-16.8 19-5.8-19h22.6zm-25.3 1.4l6.4 20.8c-11.6-1.1-19.5-2.7-23.2-3.6l16.8-17.2zm-15.4 20.7c4.5 1 12.2 2.4 23 3.3l16.5 42.7-39.5-46zm26.4 3.6c5.3.4 11.2.6 17.8.6 6.6 0 12.5-.2 17.8-.6l-17.8 46-17.8-46zm22.4 42.5l16.5-42.7c10.7-.9 18.4-2.3 23-3.3l-39.5 46zm40.9-49.5c-3.7.9-11.6 2.5-23.2 3.6l6.4-20.8 16.8 17.2z"/><path class="st0" d="M1011.9 851.5c-.1 0-.3-.1-.4-.2l-50.5-58.9c-.2-.2-.2-.5 0-.7l21.8-22.4c.1-.1.2-.2.4-.2h57.4c.1 0 .3.1.4.2l21.8 22.4c.2.2.2.5 0 .7l-50.5 58.9c-.1.2-.2.2-.4.2zm-49.8-59.4l49.9 58.1 49.9-58.1-21.4-22h-57l-21.4 22zm49.8 52.8c-.2 0-.4-.1-.5-.3l-17.8-46c-.1-.2 0-.3.1-.5s.3-.2.4-.2c5.8.4 11.7.6 17.7.6 6.1 0 11.9-.2 17.7-.6.2 0 .3.1.4.2.1.1.1.3.1.5l-17.8 46c.1.2-.1.3-.3.3zm-17-45.9l17 44.1 17-44.1c-5.6.4-11.2.5-17 .5-5.7 0-11.4-.2-17-.5zm12.4 42.4c-.1 0-.3-.1-.4-.2l-39.5-46c-.1-.2-.2-.4 0-.6.1-.2.3-.3.5-.2 4.6 1 12.2 2.4 22.9 3.3.2 0 .4.1.4.3l16.5 42.7c.1.2 0 .5-.2.6 0 .1-.1.1-.2.1zm-38.2-45.7l36.6 42.7-15.3-39.7c-9.5-.9-16.6-2.1-21.3-3zm47.5 45.7c-.1 0-.2 0-.3-.1-.2-.1-.3-.4-.2-.6l16.5-42.7c.1-.2.2-.3.4-.3 10.7-.9 18.4-2.3 22.9-3.3.2 0 .4 0 .5.2.1.2.1.4 0 .6l-39.5 46c0 .1-.2.2-.3.2zm16.8-42.8l-15.3 39.7 36.6-42.7c-4.6 1-11.7 2.2-21.3 3zm-21.5-2.1c-6.4 0-12.8-.2-19-.7-.2 0-.4-.1-.4-.3v-.1c-.1-.2 0-.4.1-.5l19-21.6c.2-.2.6-.2.8 0l19 21.6c.1.1.2.3.1.5v.1c-.1.2-.2.3-.4.3-6.3.4-12.7.7-19.2.7zm-18.1-1.7c11.8.9 24.4.9 36.2 0l-18.1-20.5-18.1 20.5zm40.5.7c-.1 0-.3-.1-.4-.2-.1-.1-.1-.3-.1-.5l6.4-20.8c.1-.2.2-.3.4-.3s.4 0 .5.1l16.8 17.2c.1.1.2.3.1.5s-.2.3-.4.3c-3.7.9-11.5 2.6-23.3 3.7zm6.6-20.4l-5.9 19.3c10.4-1 17.7-2.4 21.5-3.3l-15.6-16zm-51.3 20.4c-11.8-1.1-19.6-2.7-23.3-3.6-.2 0-.3-.2-.4-.3 0-.2 0-.4.1-.5l16.8-17.2c.1-.1.3-.2.5-.1.2 0 .3.2.4.3l6.4 20.8c0 .2 0 .3-.1.5l-.4.1zm-22.2-4.4c3.8.9 11.1 2.3 21.5 3.3l-5.9-19.3-15.6 16zm64.7 1.2c-.1 0-.3-.1-.4-.2l-16.8-19c-.1-.1-.2-.4-.1-.5.1-.2.3-.3.5-.3h22.6c.2 0 .3.1.4.2.1.1.1.3.1.4l-5.8 19c-.1.2-.2.3-.4.3l-.1.1zm-15.7-19.1l15.4 17.5 5.4-17.5h-20.8zm-24.6 19.1h-.1c-.2 0-.3-.2-.4-.3l-5.8-19c0-.2 0-.3.1-.4.1-.1.2-.2.4-.2h22.6c.2 0 .4.1.5.3.1.2 0 .4-.1.5l-16.8 19-.4.1zm-5.2-19.1l5.4 17.5 15.4-17.5h-20.8z"/></svg>