<?xml version="1.0" encoding="utf-8"?>
<!-- Generator: Adobe Illustrator 19.0.0, SVG Export Plug-In . SVG Version: 6.00 Build 0)  -->
<svg version="1.1" id="Layer_1" xmlns="http://www.w3.org/2000/svg" xmlns:xlink="http://www.w3.org/1999/xlink" x="0px" y="0px"
	 viewBox="0 0 180.6 160.5" style="enable-background:new 0 0 180.6 160.5;" xml:space="preserve">
<style type="text/css">
	.st0{fill:#CC401F;}
</style>
<g id="XMLID_418_">
	<path id="XMLID_489_" class="st0" d="M53.7,26.8L24.8,56.5l66.8,77.9l66.8-77.9l-28.9-29.7H53.7z M126,30.9L118.3,56L96.1,30.9H126
		z M116.8,60.5l-0.1,0.1c-7.4,0.6-15.8,0.9-25.1,0.9c-9.4,0-17.7-0.4-25.1-0.9l-0.1-0.1l25.2-28.6L116.8,60.5z M87.1,30.9L65,56
		l-7.7-25.2H87.1z M53.6,32.7L62,60.3c-15.3-1.4-25.7-3.6-30.6-4.8L53.6,32.7z M33.3,60.1c6,1.3,16.2,3.2,30.4,4.4L85.5,121
		L33.3,60.1z M68.1,64.8c7,0.5,14.8,0.8,23.5,0.8c8.7,0,16.5-0.3,23.5-0.8l-23.5,60.8L68.1,64.8z M97.8,121l21.8-56.5
		c14.2-1.2,24.4-3.1,30.4-4.4L97.8,121z M151.8,55.5c-4.9,1.2-15.3,3.4-30.6,4.8l8.4-27.6L151.8,55.5z"/>
	<path id="XMLID_470_" class="st0" d="M91.6,136L23.4,56.4l29.9-30.7H130l29.9,30.7L91.6,136z M26.2,56.5l65.4,76.2L157,56.5
		l-27.9-28.7h-75L26.2,56.5z M91.6,128.6l-25.1-65l1.7,0.1c7.6,0.5,15.5,0.8,23.4,0.8c8,0,15.7-0.3,23.4-0.8l1.7-0.1L91.6,128.6z
		 M69.7,66l21.9,56.7L113.5,66c-7.2,0.5-14.4,0.7-21.9,0.7C84.2,66.7,76.9,66.5,69.7,66z M94.5,126.4l24.3-62.9l0.7-0.1
		c14.1-1.2,24.2-3,30.2-4.4l3.1-0.7L94.5,126.4z M120.4,65.5L101,115.6l46.1-53.8C141,63.1,132.1,64.5,120.4,65.5z M88.7,126.4
		L30.3,58.4l3.1,0.7c6,1.3,16.1,3.2,30.2,4.4l0.7,0.1L88.7,126.4z M36.1,61.8l46.1,53.8L62.9,65.5C51.2,64.5,42.2,63,36.1,61.8z
		 M91.6,62.6c-8.5,0-17-0.3-25.2-0.9l-0.7-0.1l-0.5-1.2l0.4-0.6l26-29.5l26.4,30l-0.5,1.4l-0.7,0.1C108.6,62.3,100.1,62.6,91.6,62.6
		z M68.6,59.7c15.1,1,31,1.1,46.1,0L91.6,33.5L68.6,59.7z M119.7,61.5l9.4-30.8l24.7,25.4l-1.8,0.4c-4.8,1.2-15.2,3.4-30.8,4.8
		L119.7,61.5z M130.1,34.7L122.7,59c12.8-1.2,21.9-3,27-4.2L130.1,34.7z M63.5,61.5l-1.6-0.1c-15.6-1.4-26-3.6-30.8-4.8l-1.8-0.4
		l24.7-25.4L63.5,61.5z M33.5,54.9c5.1,1.2,14.2,2.9,27,4.2l-7.4-24.3L33.5,54.9z M118.7,58.2l-25-28.4h33.7L118.7,58.2z M98.5,31.9
		l19.3,22l6.7-22H98.5z M64.5,58.2l-8.7-28.4h33.7L64.5,58.2z M58.7,31.9l6.7,22l19.3-22H58.7z"/>
</g>
<g id="XMLID_14_">
</g>
<g id="XMLID_15_">
</g>
<g id="XMLID_16_">
</g>
<g id="XMLID_17_">
</g>
<g id="XMLID_18_">
</g>
<g id="XMLID_19_">
</g>
<g id="XMLID_20_">
</g>
<g id="XMLID_21_">
</g>
<g id="XMLID_22_">
</g>
<g id="XMLID_23_">
</g>
<g id="XMLID_24_">
</g>
<g id="XMLID_25_">
</g>
<g id="XMLID_26_">
</g>
<g id="XMLID_27_">
</g>
<g id="XMLID_28_">
</g>
</svg>
