<svg version="1.1" id="Layer_1" xmlns="http://www.w3.org/2000/svg" xmlns:xlink="http://www.w3.org/1999/xlink" x="0px" y="0px"
	 viewBox="-389 200.5 180.6 160.5" style="enable-background:new -389 200.5 180.6 160.5;" xml:space="preserve">
<style type="text/css">
	.st0{fill:#CC401F;}
</style>
<g id="XMLID_418_">
	<path id="XMLID_489_" class="st0" d="M-335.3,227.3l-28.9,29.7l66.8,77.9l66.8-77.9l-28.9-29.7
		C-259.5,227.3-335.3,227.3-335.3,227.3z M-263,231.4l-7.7,25.1l-22.2-25.1H-263z M-272.2,261l-0.1,0.1c-7.4,0.6-15.8,0.9-25.1,0.9
		c-9.4,0-17.7-0.4-25.1-0.9l-0.1-0.1l25.2-28.6L-272.2,261z M-301.9,231.4l-22.1,25.1l-7.7-25.2L-301.9,231.4L-301.9,231.4z
		 M-335.4,233.2l8.4,27.6c-15.3-1.4-25.7-3.6-30.6-4.8L-335.4,233.2z M-355.7,260.6c6,1.3,16.2,3.2,30.4,4.4l21.8,56.5L-355.7,260.6
		z M-320.9,265.3c7,0.5,14.8,0.8,23.5,0.8c8.7,0,16.5-0.3,23.5-0.8l-23.5,60.8L-320.9,265.3z M-291.2,321.5l21.8-56.5
		c14.2-1.2,24.4-3.1,30.4-4.4L-291.2,321.5z M-237.2,256c-4.9,1.2-15.3,3.4-30.6,4.8l8.4-27.6L-237.2,256z"/>
	<path id="XMLID_470_" class="st0" d="M-297.4,336.5l-68.2-79.6l29.9-30.7h76.7l29.9,30.7L-297.4,336.5z M-362.8,257l65.4,76.2
		L-232,257l-27.9-28.7h-75L-362.8,257z M-297.4,329.1l-25.1-65l1.7,0.1c7.6,0.5,15.5,0.8,23.4,0.8c8,0,15.7-0.3,23.4-0.8l1.7-0.1
		L-297.4,329.1z M-319.3,266.5l21.9,56.7l21.9-56.7c-7.2,0.5-14.4,0.7-21.9,0.7C-304.8,267.2-312.1,267-319.3,266.5z M-294.5,326.9
		l24.3-62.9l0.7-0.1c14.1-1.2,24.2-3,30.2-4.4l3.1-0.7L-294.5,326.9z M-268.6,266l-19.4,50.1l46.1-53.8
		C-248,263.6-256.9,265-268.6,266z M-300.3,326.9l-58.4-68l3.1,0.7c6,1.3,16.1,3.2,30.2,4.4l0.7,0.1L-300.3,326.9z M-352.9,262.3
		l46.1,53.8l-19.3-50.1C-337.8,265-346.8,263.5-352.9,262.3z M-297.4,263.1c-8.5,0-17-0.3-25.2-0.9l-0.7-0.1l-0.5-1.2l0.4-0.6
		l26-29.5l26.4,30l-0.5,1.4l-0.7,0.1C-280.4,262.8-288.9,263.1-297.4,263.1z M-320.4,260.2c15.1,1,31,1.1,46.1,0l-23.1-26.2
		L-320.4,260.2z M-269.3,262l9.4-30.8l24.7,25.4l-1.8,0.4c-4.8,1.2-15.2,3.4-30.8,4.8L-269.3,262z M-258.9,235.2l-7.4,24.3
		c12.8-1.2,21.9-3,27-4.2L-258.9,235.2z M-325.5,262l-1.6-0.1c-15.6-1.4-26-3.6-30.8-4.8l-1.8-0.4l24.7-25.4L-325.5,262z
		 M-355.5,255.4c5.1,1.2,14.2,2.9,27,4.2l-7.4-24.3L-355.5,255.4z M-270.3,258.7l-25-28.4h33.7L-270.3,258.7z M-290.5,232.4l19.3,22
		l6.7-22C-264.5,232.4-290.5,232.4-290.5,232.4z M-324.5,258.7l-8.7-28.4h33.7L-324.5,258.7z M-330.3,232.4l6.7,22l19.3-22
		C-304.3,232.4-330.3,232.4-330.3,232.4z"/>
</g>
<g id="XMLID_14_">
</g>
<g id="XMLID_15_">
</g>
<g id="XMLID_16_">
</g>
<g id="XMLID_17_">
</g>
<g id="XMLID_18_">
</g>
<g id="XMLID_19_">
</g>
<g id="XMLID_20_">
</g>
<g id="XMLID_21_">
</g>
<g id="XMLID_22_">
</g>
<g id="XMLID_23_">
</g>
<g id="XMLID_24_">
</g>
<g id="XMLID_25_">
</g>
<g id="XMLID_26_">
</g>
<g id="XMLID_27_">
</g>
<g id="XMLID_28_">
</g>
</svg>
