<?xml version="1.0" encoding="utf-8"?>
<!-- Generator: Adobe Illustrator 19.0.0, SVG Export Plug-In . SVG Version: 6.00 Build 0)  -->
<svg version="1.1" id="Layer_1" xmlns="http://www.w3.org/2000/svg" xmlns:xlink="http://www.w3.org/1999/xlink" x="0px" y="0px"
	 viewBox="-319 161 640 480" style="enable-background:new -319 161 640 480;" xml:space="preserve">
<style type="text/css">
	.st0{enable-background:new    ;}
	.st1{fill:#666666;}
	.st2{fill:none;stroke:#FCEE21;stroke-width:4;stroke-miterlimit:10;}
</style>
<g class="st0">
	<path class="st1" d="M-287.1,348.9v-12.4h3.4v10.8c2.2,2.2,5,4,8.3,5.4c3.3,1.5,7.3,2.2,12,2.2c2.9,0,5.7-0.5,8.4-1.4
		c2.7-0.9,5.1-2.2,7.2-3.9c2.1-1.7,3.7-3.7,5-6.2c1.2-2.4,1.9-5.2,1.9-8.2c0-3.6-0.6-6.6-1.8-8.9s-2.8-4.3-4.8-5.8
		c-2-1.5-4.3-2.7-6.8-3.6c-2.5-0.9-5.1-1.8-7.8-2.5c-2.7-0.8-5.3-1.6-7.9-2.4c-2.6-0.8-4.9-1.9-7-3.3c-2.1-1.4-3.8-3.1-5.1-5.3
		c-1.3-2.2-2.1-4.9-2.2-8.3c-0.2-2.7,0.1-5.3,0.9-8c0.8-2.7,2-5.1,3.7-7.3c1.7-2.2,4-3.9,6.7-5.2c2.7-1.3,6-2,9.9-2
		c1.4,0,2.8,0.1,4.4,0.2c1.6,0.2,3.2,0.4,4.8,0.8c1.6,0.4,3.3,1,4.9,1.7c1.6,0.7,3.1,1.7,4.6,2.9v13.4h-3.4v-11.6
		c-1.6-1.1-3.7-2.1-6.2-2.9c-2.6-0.8-5.6-1.2-9.2-1.2c-3,0-5.5,0.5-7.8,1.5c-2.2,1-4.1,2.3-5.6,4c-1.5,1.7-2.6,3.6-3.3,5.8
		c-0.7,2.2-1.1,4.4-1.1,6.7c0,3,0.6,5.5,1.9,7.5c1.2,2,2.9,3.6,4.9,4.8c2,1.2,4.3,2.3,6.8,3.1c2.6,0.8,5.2,1.6,7.9,2.4
		c2.7,0.8,5.4,1.7,8,2.8c2.6,1,4.9,2.4,7,4.1c2,1.7,3.7,3.9,5,6.5c1.3,2.6,2,5.9,2,9.9c0.1,3.5-0.5,6.7-1.9,9.6
		c-1.3,2.9-3.2,5.4-5.5,7.4c-2.3,2-5.1,3.6-8.2,4.7c-3.1,1.1-6.4,1.6-9.9,1.6c-3.2,0-6.1-0.3-8.7-1c-2.6-0.6-4.9-1.4-6.9-2.4
		c-2-1-3.7-2-5.1-3.1C-285.2,350.7-286.3,349.8-287.1,348.9z"/>
	<path class="st1" d="M-208.3,353.9h9.6v-77.6h-28.2v15.2h-3.4V273h66.6v18.6h-3.4v-15.2h-28.3v77.6h9.6v3.4h-22.6V353.9z"/>
	<path class="st1" d="M-152.3,354.2c0-0.9,0.3-1.6,1-2.3c0.6-0.6,1.4-1,2.3-1c0.9,0,1.6,0.3,2.2,1c0.6,0.6,0.9,1.4,0.9,2.3
		c0,0.9-0.3,1.6-0.9,2.2c-0.6,0.6-1.3,0.9-2.2,0.9c-0.9,0-1.6-0.3-2.3-0.9C-152,355.8-152.3,355.1-152.3,354.2z"/>
	<path class="st1" d="M-99.4,353.9h9.3v-77.6h-9.3V273h58.7v18.6h-3.4v-15.2h-42.6v36.9h41.3v3.4h-41.3v37.3h44.3v-15.2h3.4v18.6
		h-60.4V353.9z"/>
	<path class="st1" d="M-30.6,353.9h8.8v-77.6h-8.8V273h22.2v3.4h-10v77.6h44.3v-15.2h3.4v18.6h-59.9V353.9z"/>
	<path class="st1" d="M132.7,273H145v3.4h-9.5v77.6h10v3.4h-22.6v-3.4h9.3v-70.1c0-0.1,0-0.4,0-0.8c0-0.5,0-1,0.1-1.6
		c0-0.6,0.1-1.2,0.1-1.7c0-0.5,0.1-0.8,0.1-0.9c-0.2,0.2-0.4,0.4-0.7,0.8s-0.6,0.8-1,1.4c-1,1.4-2.5,3.3-4.3,5.7
		c-1.8,2.3-3.8,5-6,7.9c-2.2,2.9-4.6,6.1-7.2,9.4c-2.6,3.3-5.1,6.7-7.7,10c-2.5,3.3-5,6.6-7.5,9.7c-2.5,3.2-4.7,6.1-6.7,8.7
		c-4.7-6.1-8.8-11.6-12.6-16.4s-7.2-9.3-10.3-13.4c-3.1-4.1-6-7.9-8.7-11.4c-2.7-3.5-5.4-7-8-10.5l-1.3-1.8c0.1,0.9,0.1,1.7,0.2,2.5
		c0,0.8,0.1,1.6,0.1,2.5v70.1h9.8v3.4H37.8v-3.4h9.5v-77.6h-9.5V273h12.3c0.5,0.6,1.5,1.9,3.1,4c1.6,2.1,3.5,4.6,5.8,7.6
		c2.3,3,4.8,6.3,7.6,9.9c2.8,3.7,5.7,7.4,8.6,11.2s5.8,7.5,8.5,11.1c2.8,3.6,5.3,6.9,7.6,9.9c6.9-8.9,13.8-17.8,20.7-26.8
		C118.9,290.8,125.8,281.9,132.7,273z"/>
	<path class="st1" d="M153.8,315.3c0-5.9,1.1-11.5,3.4-16.8c2.2-5.3,5.3-9.8,9.2-13.7c3.9-3.9,8.5-7,13.7-9.3
		c5.2-2.3,10.8-3.4,16.7-3.4c5.9,0,11.5,1.1,16.8,3.4c5.3,2.3,9.8,5.4,13.7,9.3c3.9,3.9,7,8.5,9.3,13.7c2.3,5.3,3.4,10.9,3.4,16.8
		c0,5.9-1.1,11.5-3.4,16.7c-2.3,5.2-5.4,9.8-9.3,13.7c-3.9,3.9-8.5,7-13.7,9.2c-5.3,2.2-10.9,3.4-16.8,3.4c-5.9,0-11.5-1.1-16.7-3.4
		c-5.2-2.2-9.8-5.3-13.7-9.2c-3.9-3.9-7-8.5-9.2-13.7C154.9,326.8,153.8,321.2,153.8,315.3z M157.2,315.4c0,5.4,1,10.6,3.1,15.4
		c2.1,4.8,4.9,9,8.4,12.6c3.5,3.6,7.7,6.4,12.5,8.5c4.8,2.1,9.9,3.1,15.4,3.1c5.5,0,10.6-1,15.5-3.1c4.9-2.1,9.1-4.9,12.8-8.5
		c3.7-3.6,6.5-7.8,8.7-12.6c2.1-4.8,3.2-9.9,3.2-15.4c0-5.4-1-10.6-3.1-15.4c-2.1-4.8-4.9-9.1-8.6-12.7c-3.6-3.6-7.9-6.5-12.7-8.6
		c-4.9-2.1-10-3.2-15.5-3.2c-5.5,0-10.6,1.1-15.4,3.2c-4.8,2.1-9,5-12.6,8.6c-3.6,3.6-6.4,7.8-8.5,12.7
		C158.2,304.7,157.2,309.9,157.2,315.4z"/>
</g>
<g class="st0">
	<path class="st1" d="M-287.8,497.5h8v-77.6h-8v-3.4h26.3c3.7,0,7.1,0.4,10.1,1.2c3.1,0.8,5.7,2.1,7.9,3.7c2.2,1.7,3.9,3.9,5.1,6.6
		c1.2,2.7,1.8,5.9,1.8,9.6c0,5-1.2,9.4-3.7,13.1c-2.5,3.8-6.3,6.4-11.4,7.7c2.4,0.5,4.7,1.3,6.9,2.4c2.2,1.1,4.2,2.6,5.8,4.3
		c1.7,1.8,3,3.8,4,6.1c1,2.3,1.5,4.9,1.5,7.8c0,3.6-0.7,6.8-2.2,9.4c-1.4,2.7-3.4,4.9-5.8,6.7c-2.4,1.8-5.2,3.2-8.3,4.1
		c-3.1,0.9-6.3,1.4-9.7,1.4h-28.4V497.5z M-276.5,419.9v37h16.7c3,0,5.7-0.5,8.1-1.4c2.4-0.9,4.5-2.2,6.3-3.9c1.7-1.7,3.1-3.7,4-6.1
		c0.9-2.4,1.4-5,1.4-7.9c0-3.2-0.5-5.9-1.5-8.2c-1-2.2-2.4-4.1-4.2-5.5c-1.8-1.4-3.9-2.5-6.4-3.1c-2.5-0.6-5.2-1-8.2-1H-276.5z
		 M-276.5,460.3v37.2h16.9c3.1,0,6.1-0.4,8.8-1.1c2.7-0.8,5.1-1.9,7.2-3.4c2.1-1.5,3.7-3.4,4.9-5.7c1.2-2.3,1.8-5,1.8-8
		c0-3.3-0.7-6.1-2.1-8.5c-1.4-2.4-3.3-4.4-5.6-5.9c-2.3-1.6-5-2.7-8-3.4c-3-0.7-6.1-1.1-9.3-1.1H-276.5z"/>
	<path class="st1" d="M-225,497.5h8v-77.6h-8v-3.4h25.4c2.4,0,5.1,0.4,8,1.2s5.6,2.1,8.1,3.8c2.5,1.7,4.6,4,6.3,6.7
		c1.7,2.8,2.5,6.1,2.5,9.9c0,5.7-1.5,10.4-4.6,14.2c-3.1,3.8-7.6,6.3-13.6,7.5l17.7,37.6h10.4v3.4H-177l-19.3-40.7
		c-1.9,0.2-3.7,0.4-5.6,0.4h-11.9v37h11.3v3.4H-225V497.5z M-213.7,457.1h13.1c4.4,0,8.1-0.6,11-1.8s5.2-2.7,6.9-4.6
		c1.7-1.9,2.9-3.9,3.6-6.1c0.7-2.2,1-4.3,1-6.4c0-2.4-0.6-4.7-1.7-6.9c-1.1-2.2-2.7-4.2-4.7-5.9c-2-1.7-4.4-3-7.1-4
		c-2.7-1-5.7-1.5-8.9-1.5h-13.3V457.1z"/>
	<path class="st1" d="M-156.4,497.5h9.3v-77.6h-9.3v-3.4h58.7v18.6h-3.4v-15.2h-42.6v36.9h41.3v3.4h-41.3v37.3h44.3v-15.2h3.4v18.6
		h-60.4V497.5z"/>
	<path class="st1" d="M-87.5,497.5h9.1c6-14.2,12-28.3,18-42.3c6-14,12-28.2,18-42.5c6,14.3,12,28.4,18,42.5c6,14,12,28.1,18,42.3
		h9.2v3.4h-22v-3.4h9.5c-2.4-5.6-4.8-11.2-7.2-16.8c-2.4-5.6-4.8-11.2-7.2-16.9h-36.5c-2.4,5.7-4.8,11.3-7.2,16.9
		c-2.4,5.6-4.8,11.2-7.2,16.8h9.6v3.4h-22V497.5z M-41.3,423.4l-1.1-3.2c-0.1,0.2-0.2,0.4-0.2,0.7c-0.1,0.3-0.2,0.7-0.4,1.1
		l-0.5,1.4c-2.2,5.6-4.7,11.6-7.5,18c-2.8,6.4-5.6,12.7-8.2,19h33.6L-41.3,423.4z"/>
	<path class="st1" d="M11.2,497.5h8.2v-77.6h-8.2v-3.4h25.3c5.8,0,11.2,1,16.4,3c5.1,2,9.6,4.8,13.5,8.4c3.9,3.7,6.9,8.1,9.2,13.3
		c2.2,5.2,3.4,11,3.4,17.5c0,4.7-0.8,9.6-2.5,14.6c-1.6,5-4.3,9.5-8,13.6c-3.7,4.1-8.5,7.4-14.4,10.1c-5.9,2.6-13.1,3.9-21.6,3.9
		H11.2V497.5z M22.8,419.9v77.6h11.1c7.3,0,13.6-1.2,18.8-3.5c5.2-2.3,9.6-5.3,13-9c3.4-3.7,5.9-7.8,7.5-12.4
		c1.6-4.6,2.4-9.2,2.4-13.9c0-5.9-1-11.3-3.1-16.1c-2-4.8-4.8-8.9-8.4-12.2c-3.5-3.4-7.6-5.9-12.3-7.7c-4.7-1.8-9.7-2.7-15-2.7H22.8
		z"/>
	<path class="st1" d="M185.1,435.1v-11.4c-5.7-3.2-11.9-4.8-18.8-4.8c-5.5,0-10.6,1.1-15.4,3.2c-4.8,2.1-9,5-12.6,8.6
		c-3.6,3.6-6.4,7.8-8.5,12.7c-2.1,4.8-3.1,10-3.1,15.6c0,5.4,1,10.6,3.1,15.4c2.1,4.8,4.9,9,8.4,12.6c3.5,3.6,7.7,6.4,12.5,8.5
		c4.8,2.1,9.9,3.1,15.4,3.1c3.7,0,7.2-0.5,10.6-1.4c3.4-0.9,6.6-2.3,9.6-4l1.9,2.8c-3.2,1.8-6.6,3.3-10.3,4.4
		c-3.7,1.1-7.5,1.6-11.6,1.6c-5.9,0-11.5-1.1-16.7-3.4c-5.2-2.2-9.8-5.3-13.7-9.2c-3.9-3.9-7-8.5-9.2-13.7
		c-2.2-5.2-3.4-10.8-3.4-16.7c0-5.9,1.1-11.5,3.4-16.8c2.2-5.3,5.3-9.8,9.2-13.7c3.9-3.9,8.5-7,13.7-9.3c5.2-2.3,10.8-3.4,16.7-3.4
		c4.1,0,8,0.5,11.6,1.6c3.7,1,7.1,2.5,10.4,4.5v13.5H185.1z"/>
	<path class="st1" d="M197,458.8c0-5.9,1.1-11.5,3.4-16.8c2.2-5.3,5.3-9.8,9.2-13.7c3.9-3.9,8.5-7,13.7-9.3
		c5.2-2.3,10.8-3.4,16.7-3.4c5.9,0,11.5,1.1,16.8,3.4c5.3,2.3,9.8,5.4,13.7,9.3c3.9,3.9,7,8.5,9.3,13.7c2.3,5.3,3.4,10.9,3.4,16.8
		c0,5.9-1.1,11.5-3.4,16.7c-2.3,5.2-5.4,9.8-9.3,13.7c-3.9,3.9-8.5,7-13.7,9.2c-5.3,2.2-10.9,3.4-16.8,3.4c-5.9,0-11.5-1.1-16.7-3.4
		c-5.2-2.2-9.8-5.3-13.7-9.2c-3.9-3.9-7-8.5-9.2-13.7C198.1,470.4,197,464.8,197,458.8z M200.3,459c0,5.4,1,10.6,3.1,15.4
		c2.1,4.8,4.9,9,8.4,12.6c3.5,3.6,7.7,6.4,12.5,8.5c4.8,2.1,9.9,3.1,15.4,3.1c5.5,0,10.6-1,15.5-3.1c4.9-2.1,9.1-4.9,12.8-8.5
		c3.7-3.6,6.5-7.8,8.7-12.6c2.1-4.8,3.2-9.9,3.2-15.4c0-5.4-1-10.6-3.1-15.4c-2.1-4.8-4.9-9.1-8.6-12.7c-3.6-3.6-7.9-6.5-12.7-8.6
		c-4.9-2.1-10-3.2-15.5-3.2c-5.5,0-10.6,1.1-15.4,3.2c-4.8,2.1-9,5-12.6,8.6c-3.6,3.6-6.4,7.8-8.5,12.7
		C201.4,448.2,200.3,453.4,200.3,459z"/>
	<path class="st1" d="M294.5,497.7c0-0.9,0.3-1.6,1-2.3c0.6-0.6,1.4-1,2.3-1c0.9,0,1.6,0.3,2.2,1c0.6,0.6,0.9,1.4,0.9,2.3
		c0,0.9-0.3,1.6-0.9,2.2c-0.6,0.6-1.3,0.9-2.2,0.9c-0.9,0-1.6-0.3-2.3-0.9C294.8,499.4,294.5,498.6,294.5,497.7z"/>
</g>
<line class="st2" x1="-289" y1="526" x2="294" y2="526"/>
</svg>
