<?xml version="1.0" encoding="utf-8"?>
<!-- Generator: Adobe Illustrator 19.0.0, SVG Export Plug-In . SVG Version: 6.00 Build 0)  -->
<svg version="1.1" id="Layer_1" xmlns="http://www.w3.org/2000/svg" xmlns:xlink="http://www.w3.org/1999/xlink" x="0px" y="0px"
	 viewBox="-319 161 640 480" style="enable-background:new -319 161 640 480;" xml:space="preserve">
<style type="text/css">
	.st0{enable-background:new    ;}
	.st1{fill:#BBBDBF;}
	.st2{fill:#404041;}
	.st3{fill:#A6A8AB;}
	.st4{fill:#5FBA46;}
</style>
<g class="st0">
	<path class="st1" d="M-301.7,515.3v-48.2h4.1v44.5h23.4v3.8H-301.7z"/>
	<path class="st1" d="M-257.3,515.3v-48.2h4.1v48.2H-257.3z"/>
	<path class="st1" d="M-233.2,515.3v-48.2h30.6v3.8h-26.5v17.9h26v3.8h-26v22.9H-233.2z"/>
	<path class="st1" d="M-186,515.3v-48.2h30.6v3.8h-26.5v17.9h26v3.8h-26v19.1h26.5v3.8H-186z"/>
	<path class="st1" d="M-110.6,515.3v-48.2h18.1c9.3,0,14.5,6.5,14.5,14.1c0,7.6-5.4,14.1-14.5,14.1h-14v20H-110.6z M-82.3,481.2
		c0-6.1-4.3-10.3-10.6-10.3h-13.5v20.7H-93C-86.6,491.6-82.3,487.3-82.3,481.2z"/>
	<path class="st1" d="M-61.4,515.3v-48.2h4.1v44.5h23.4v3.8H-61.4z"/>
	<path class="st1" d="M18,515.3l-4.8-11.9h-25.5l-4.8,11.9h-4.8l19.7-48.2H3l19.7,48.2H18z M0.4,471.5L-11,499.7h22.8L0.4,471.5z"/>
	<path class="st1" d="M72.3,515.3l-30.4-41.4v41.4h-4.1v-48.2H42L72.2,508v-40.9h4.1v48.2H72.3z"/>
	<path class="st1" d="M130.8,515.3l-30.4-41.4v41.4h-4.1v-48.2h4.2l30.2,40.9v-40.9h4.1v48.2H130.8z"/>
	<path class="st1" d="M154.8,515.3v-48.2h4.1v48.2H154.8z"/>
	<path class="st1" d="M213.4,515.3L183,473.9v41.4h-4.1v-48.2h4.2l30.2,40.9v-40.9h4.1v48.2H213.4z"/>
	<path class="st1" d="M235.6,491.3c0-14.9,10.9-25,24.4-25c8,0,13.7,3.2,18.2,8.2l-3.1,2.2c-3.4-4.1-8.9-6.7-15-6.7
		c-11.4,0-20.1,8.6-20.1,21.2c0,12.4,8.8,21.3,20.1,21.3c6.4,0,11.5-3.2,14.2-5.9v-11.6H256v-3.7h22.3v16.9c-4.3,4.8-10.7,8-18.3,8
		C246.5,516.3,235.6,506.2,235.6,491.3z"/>
</g>
<g class="st0">
	<path class="st2" d="M-302,434.4V321.7h45.3c22.6,0,35.3,15.5,35.3,34c0,18.4-13,34-35.3,34H-288v44.8H-302z M-235.9,355.6
		c0-12.7-9.1-21.5-22.5-21.5H-288v42.9h29.6C-245,377.1-235.9,368.3-235.9,355.6z"/>
	<path class="st2" d="M-193.8,434.4V321.7h14v100.2h52.4v12.5H-193.8z"/>
	<path class="st2" d="M-18.3,434.4l-10-25h-56.1l-10,25h-16.1l45.3-112.7h17.4l45.5,112.7H-18.3z M-56.3,336.2l-24,60.7h47.8
		L-56.3,336.2z"/>
	<path class="st2" d="M101.2,434.4l-65.7-89.9v89.9h-14V321.7h14.4l64.9,88v-88h14v112.7H101.2z"/>
</g>
<g>
	<path class="st3" d="M221.1,320.8h17.8l49.7,115.5h-23.5l-14.9-36.7h-41.8l-14.5,36.7h-23L221.1,320.8z M247.2,392.2l-17.8-47
		l-18.1,47H247.2z"/>
</g>
<g>
	<rect x="154.9" y="383.6" class="st4" width="132.5" height="15.6"/>
	<g>
		<polygon class="st4" points="282,410.1 314.3,391.4 282,372.7 		"/>
	</g>
</g>
</svg>
