<?xml version="1.0" encoding="utf-8"?>
<!-- Generator: Adobe Illustrator 19.0.0, SVG Export Plug-In . SVG Version: 6.00 Build 0)  -->
<svg version="1.1" id="Layer_1" xmlns="http://www.w3.org/2000/svg" xmlns:xlink="http://www.w3.org/1999/xlink" x="0px" y="0px"
	 viewBox="-319 161 640 480" style="enable-background:new -319 161 640 480;" xml:space="preserve">
<style type="text/css">
	.st0{enable-background:new    ;}
	.st1{fill:#666666;}
	.st2{fill:#1B75BB;}
	.st3{fill:#999999;}
</style>
<g class="st0">
	<path class="st1" d="M-313,431.1c0.3-3.5,1.4-6.5,3.2-9.2c1.8-2.7,4.1-5,6.9-7c2.8-2,5.9-3.6,9.5-5c3.5-1.3,7.2-2.4,10.9-3.2
		c3.7-0.8,7.4-1.4,11.1-1.7c3.7-0.3,7.1-0.5,10.3-0.5V398c0-4.2-0.5-7.7-1.5-10.4c-1-2.8-2.5-4.9-4.4-6.5c-1.9-1.6-4.2-2.7-7-3.4
		c-2.7-0.7-5.8-1-9.3-1c-1.9,0-4,0.2-6.2,0.6c-2.2,0.4-4.4,0.9-6.6,1.5c-2.2,0.7-4.3,1.4-6.3,2.2c-2,0.8-3.7,1.6-5.1,2.5l-2.2-5.3
		c1.9-1.5,4.1-2.8,6.8-4c2.7-1.2,5.5-2.1,8.3-2.9c2.8-0.8,5.6-1.3,8.2-1.7c2.7-0.4,4.9-0.6,6.8-0.6c4,0,7.7,0.4,11.3,1.2
		c3.6,0.8,6.7,2.2,9.4,4.3c2.7,2.1,4.8,4.9,6.4,8.4c1.6,3.6,2.3,8.1,2.3,13.6l-0.2,52.8h9.9v4.1c-1.5,0.7-3.3,1.3-5.6,1.8
		c-2.3,0.5-4.8,0.7-7.4,0.7c-0.9,0-1.7-0.1-2.6-0.2c-0.9-0.1-1.6-0.4-2.3-0.9c-0.7-0.5-1.2-1.2-1.6-2.2c-0.4-1-0.6-2.3-0.6-4v-3
		c-1.4,1.6-3,3.1-4.7,4.4c-1.7,1.3-3.7,2.4-5.9,3.3c-2.2,0.9-4.7,1.7-7.4,2.2c-2.7,0.5-5.8,0.8-9.1,0.8c-3.4,0-6.6-0.6-9.7-1.7
		c-3.1-1.1-5.9-2.7-8.3-4.8s-4.3-4.7-5.6-7.9C-312.7,438.8-313.2,435.2-313,431.1z M-301.9,431.3c-0.1,3.1,0.4,5.8,1.4,8
		c1,2.2,2.3,4.1,4.1,5.5c1.8,1.4,3.8,2.5,6.3,3.2c2.4,0.7,5.1,1,8.1,1c2.7,0,5.2-0.3,7.4-0.9s4.3-1.3,6-2.2c1.8-0.9,3.3-1.7,4.5-2.6
		c1.3-0.9,2.2-1.7,2.9-2.3c0-1.8,0-3.9,0-6.3s0-4.9,0-7.6c0-2.7,0-5.4,0-8.2c0-2.8,0-5.5,0-8.2c-2.7,0-5.6,0.1-8.6,0.4
		c-3.1,0.3-6.1,0.7-9.1,1.3c-3,0.6-5.9,1.5-8.7,2.5c-2.8,1-5.2,2.3-7.3,3.8c-2.1,1.5-3.8,3.3-5.1,5.4
		C-301.3,426.2-301.9,428.6-301.9,431.3z"/>
	<path class="st1" d="M-229,472.6c0-2.4,0.4-4.7,1.3-6.9c0.9-2.2,1.9-4.2,3.2-6.1c1.3-1.8,2.7-3.4,4.2-4.8c1.5-1.4,2.9-2.5,4.2-3.3
		c-2-0.8-3.4-1.6-4.5-2.7c-1-1-1.8-2.1-2.3-3.2c-0.5-1.1-0.7-2.3-0.8-3.4c-0.1-1.1-0.1-2.2-0.1-3.3c0-1,0.2-2.2,0.6-3.6
		c0.4-1.4,0.9-2.9,1.7-4.5c0.8-1.6,1.7-3.2,2.8-4.8c1.1-1.6,2.4-3.1,3.8-4.5c-4-2.3-7.2-5.3-9.5-9.2c-2.4-3.9-3.5-8.7-3.5-14.4
		c0-5.1,1-9.6,2.9-13.4c2-3.8,4.5-7,7.7-9.5c3.2-2.5,6.8-4.4,10.9-5.7c4.1-1.3,8.3-2,12.7-2.1c4.1-0.1,7.9,0.3,11.5,1.2
		c3.6,0.9,6.8,2.3,9.7,4.3c1.1-1,2.7-1.8,4.8-2.4c2.1-0.6,4.9-0.9,8.5-0.9h8.9v8.8c-0.1,0-0.7,0-1.8,0c-1.1,0-2.5,0-4.1,0
		c-1.6,0-3.4,0-5.3,0c-1.9,0-3.8,0-5.5,0c1.6,2.2,2.8,4.6,3.6,7.4c0.9,2.8,1.3,6,1.3,9.5c0,4.9-0.9,9.3-2.7,13.1s-4.2,7.1-7.3,9.7
		c-3.1,2.6-6.6,4.6-10.7,6c-4,1.4-8.3,2-12.7,2c-5.9,0-11.2-0.9-15.8-2.8c-0.6,0.9-1,1.9-1.4,2.9c-0.4,1.1-0.6,2.1-0.8,3.2
		c-0.2,1.1-0.3,2.1-0.4,3c-0.1,1-0.1,1.8-0.1,2.6c0,3.5,0.9,6,2.6,7.4c1.8,1.5,4.7,2.3,8.9,2.5c0.8,0.1,1.9,0.2,3.4,0.2
		c1.5,0,3.2,0.1,5,0.1c1.8,0,3.6,0,5.5,0s3.5,0,5,0c4.7,0,8.6,0.3,12,1c3.3,0.7,6.1,1.6,8.3,2.7c2.2,1.1,4,2.4,5.3,3.9
		c1.3,1.5,2.3,3,3,4.6c0.7,1.6,1.1,3.2,1.3,4.8c0.2,1.6,0.3,3.2,0.3,4.6c0,4.3-1,8.2-2.9,11.6c-1.9,3.4-4.6,6.3-8,8.7
		c-3.4,2.4-7.5,4.2-12.3,5.5c-4.8,1.3-10.1,1.9-15.8,1.9c-4.7,0-9.3-0.4-13.7-1.1c-4.4-0.7-8.3-1.9-11.7-3.6
		c-3.4-1.7-6.1-3.9-8.2-6.7C-228,480.3-229,476.8-229,472.6z M-218.4,469c0,3.8,0.9,6.9,2.6,9.4c1.7,2.5,3.9,4.4,6.6,5.8
		c2.7,1.4,5.6,2.4,8.9,2.9c3.3,0.5,6.4,0.8,9.4,0.8c4,0,7.7-0.4,11.2-1.1c3.5-0.7,6.5-1.8,9.1-3.3c2.6-1.5,4.6-3.4,6.1-5.6
		c1.5-2.3,2.2-5,2.2-8.2c0-2.3-0.3-4.4-0.9-6.3c-0.6-1.9-1.7-3.5-3.4-4.8c-1.7-1.4-4-2.4-7.1-3.2c-3.1-0.8-7.1-1.2-12-1.2l-12.8-0.1
		c-5.5,0-9.9-0.4-13.2-1.1c-0.9,0.8-1.7,1.7-2.5,2.7c-0.8,1-1.6,2.2-2.2,3.5c-0.6,1.3-1.1,2.8-1.5,4.4
		C-218.2,465.2-218.4,467-218.4,469z M-193.4,419.6c6.5,0,11.5-1.9,15.3-5.6c3.7-3.7,5.6-9.4,5.6-17c0-8.1-1.9-14.1-5.8-17.9
		c-3.9-3.8-9.5-5.7-17-5.7c-2.9,0-5.7,0.4-8.3,1.2c-2.6,0.8-4.9,2.1-7,3.9c-2,1.8-3.6,4.1-4.8,7c-1.2,2.9-1.8,6.3-1.8,10.4
		c0,3.4,0.5,6.6,1.4,9.4c1,2.9,2.4,5.4,4.4,7.5c2,2.1,4.4,3.7,7.4,4.9C-201,419-197.5,419.6-193.4,419.6z"/>
	<path class="st1" d="M-143.3,412.8c0-6.4,1-12.3,3.1-17.8c2.1-5.4,4.9-10.1,8.5-14.1c3.6-4,8-7.1,13-9.4c5.1-2.3,10.6-3.4,16.6-3.5
		c4.3,0,8.2,0.6,11.7,2c3.5,1.4,6.5,3.4,9.1,6.1c2.5,2.7,4.5,6,5.9,9.9c1.4,3.9,2.2,8.3,2.3,13.3c0.1,2.6,0.1,4.8-0.1,6.8
		c-0.2,2-0.4,3.8-0.6,5.4h-58.4v0.8c-0.1,6.3,0.6,11.7,2.2,16.2c1.6,4.6,3.7,8.3,6.5,11.3c2.8,3,6,5.2,9.7,6.6
		c3.7,1.4,7.7,2.1,11.9,2.1c2.4,0,4.8-0.2,7.3-0.5c2.5-0.3,4.8-0.8,7-1.3c2.2-0.6,4.2-1.2,6-1.9c1.8-0.7,3.2-1.4,4.2-2.1l2.3,5.2
		c-1.5,1.3-3.3,2.5-5.7,3.5c-2.3,1.1-4.9,1.9-7.6,2.7c-2.8,0.7-5.6,1.3-8.6,1.7c-3,0.4-5.9,0.6-8.8,0.6c-6.1,0-11.4-1-16.1-3.1
		c-4.7-2.1-8.6-5-11.7-8.8c-3.2-3.8-5.6-8.4-7.2-13.7C-142.5,425.4-143.3,419.4-143.3,412.8z M-84.6,404.7c0.2-3.2,0.2-6.2,0-9.1
		c-0.2-2.9-0.7-5.5-1.5-8c-0.8-2.5-1.9-4.6-3.3-6.5c-1.4-1.9-3.2-3.4-5.3-4.5c-2.9-1.6-6.3-2.3-10.2-2.3c-3.5,0-6.7,0.6-9.8,1.9
		c-3.1,1.3-5.8,3.2-8.2,5.7c-2.4,2.5-4.4,5.7-6,9.5c-1.6,3.8-2.7,8.2-3.2,13.3H-84.6z"/>
	<path class="st1" d="M-57.6,449.5l10.7-1.4v-66.3l-11-4V374l17.8-4.6l2.8,1.4v10.4c1.7-1.4,3.8-2.8,6.4-4.2
		c2.6-1.5,5.3-2.8,8.2-3.9c2.9-1.2,5.8-2.2,8.8-3c3-0.8,5.8-1.3,8.3-1.4c4.7-0.2,8.7,0.4,12,1.6c3.3,1.2,5.9,3.2,8,6.1
		c2,2.9,3.5,6.6,4.4,11.2c0.9,4.6,1.4,10.3,1.4,17.1v43.4l12.3,1.3v5.1H-2.3v-5.1l11.6-1.3v-42.1c0-5.3-0.3-9.8-0.9-13.6
		c-0.6-3.8-1.7-6.8-3.2-9.1c-1.5-2.3-3.6-4-6.1-5c-2.5-1-5.7-1.4-9.4-1.3c-1.9,0.1-4,0.4-6.2,0.9c-2.2,0.5-4.4,1.1-6.7,2
		c-2.2,0.8-4.4,1.8-6.6,2.9c-2.2,1.1-4.2,2.3-6.1,3.6v61.8l11.9,1.3v5.1h-33.5V449.5z"/>
	<path class="st1" d="M54.5,378h-12v-4.5c2.1-0.4,3.9-0.7,5.3-0.9s2.7-0.5,3.7-0.8c1-0.3,1.8-0.7,2.4-1.2c0.6-0.5,1.2-1.3,1.8-2.2
		c0.3-0.7,0.7-1.8,1.1-3.3c0.4-1.6,0.8-3.3,1.2-5.1s0.7-3.6,1-5.3c0.3-1.7,0.5-3.1,0.6-4.2h5.7v20.3h28.2v7.3H65.2v45.2
		c0,5.1,0.1,9.2,0.3,12.5c0.2,3.3,0.7,5.8,1.4,7.7s1.7,3.2,3,3.9c1.3,0.7,3.1,1.1,5.3,1.1c1.8,0,3.6-0.2,5.3-0.5
		c1.8-0.3,3.4-0.8,5-1.3c1.6-0.5,2.9-1,4.1-1.6c1.2-0.6,2.1-1.1,2.7-1.5l1.9,5.3c-1.2,1.3-2.7,2.3-4.5,3.3c-1.9,0.9-3.9,1.7-6,2.3
		c-2.2,0.6-4.3,1.1-6.5,1.4c-2.2,0.3-4.2,0.5-5.9,0.5c-2.7,0-5.1-0.4-7.2-1.1c-2.1-0.8-3.8-2-5.2-3.6c-1.4-1.7-2.5-3.8-3.2-6.5
		c-0.7-2.7-1.1-5.9-1.1-9.7V378z"/>
</g>
<path class="st2" d="M217.8,502.5c-52.7,0-95.5-42.9-95.5-95.5s42.9-95.5,95.5-95.5s95.5,42.9,95.5,95.5S270.4,502.5,217.8,502.5z
	 M217.8,324.2c-45.6,0-82.7,37.1-82.7,82.7s37.1,82.7,82.7,82.7s82.7-37.1,82.7-82.7S263.4,324.2,217.8,324.2z"/>
<path class="st2" d="M303.1,505.3l-50.8-51.1c-0.4-0.4-0.4-1,0-1.4l7.6-7.6c0.4-0.4,1-0.4,1.4,0l50.8,51.1c0.4,0.4,0.4,1,0,1.4
	l-7.6,7.6C304.2,505.7,303.5,505.7,303.1,505.3z"/>
<g>
	<path class="st2" d="M264,393.8h-92.5c-0.2,0-0.4,0.2-0.4,0.4v22c0,0.2,0.2,0.4,0.4,0.4H264c0.2,0,0.4-0.2,0.4-0.4v-22
		C264.4,393.9,264.2,393.8,264,393.8z"/>
</g>
<g>
	<path class="st3" d="M264,427.4h-92.5c-0.2,0-0.4,0.2-0.4,0.4v7.8c0,0.2,0.2,0.4,0.4,0.4H264c0.2,0,0.4-0.2,0.4-0.4v-7.8
		C264.4,427.6,264.2,427.4,264,427.4z"/>
</g>
<g>
	<path class="st3" d="M264,374.7h-92.5c-0.2,0-0.4,0.2-0.4,0.4v7.8c0,0.2,0.2,0.4,0.4,0.4H264c0.2,0,0.4-0.2,0.4-0.4v-7.8
		C264.4,374.8,264.2,374.7,264,374.7z"/>
</g>
</svg>
