<?xml version="1.0" encoding="utf-8"?>
<!-- Generator: Adobe Illustrator 18.1.1, SVG Export Plug-In . SVG Version: 6.00 Build 0)  -->
<svg version="1.1" id="Layer_1" xmlns="http://www.w3.org/2000/svg" xmlns:xlink="http://www.w3.org/1999/xlink" x="0px" y="0px"
	 viewBox="0 0 640 480" enable-background="new 0 0 640 480" xml:space="preserve">
<text transform="matrix(1 0 0 1 -2.706 293.584)" fill="#666666" font-family="'Merriweather-Light'" font-size="153.9297" letter-spacing="-3">agent</text>
<path fill="#1B75BB" d="M536.8,341.5c-52.7,0-95.5-42.9-95.5-95.5s42.9-95.5,95.5-95.5s95.5,42.9,95.5,95.5S589.4,341.5,536.8,341.5
	z M536.8,163.2c-45.6,0-82.7,37.1-82.7,82.7s37.1,82.7,82.7,82.7c45.6,0,82.7-37.1,82.7-82.7S582.4,163.2,536.8,163.2z"/>
<path fill="#1B75BB" d="M622.1,344.3l-50.8-51.1c-0.4-0.4-0.4-1,0-1.4l7.6-7.6c0.4-0.4,1-0.4,1.4,0l50.8,51.1c0.4,0.4,0.4,1,0,1.4
	l-7.6,7.6C623.2,344.7,622.5,344.7,622.1,344.3z"/>
<g>
	<path fill="#1B75BB" d="M583,232.8h-92.5c-0.2,0-0.4,0.2-0.4,0.4v22c0,0.2,0.2,0.4,0.4,0.4H583c0.2,0,0.4-0.2,0.4-0.4v-22
		C583.4,232.9,583.2,232.8,583,232.8z"/>
</g>
<g>
	<path fill="#999999" d="M583,266.4h-92.5c-0.2,0-0.4,0.2-0.4,0.4v7.8c0,0.2,0.2,0.4,0.4,0.4H583c0.2,0,0.4-0.2,0.4-0.4v-7.8
		C583.4,266.6,583.2,266.4,583,266.4z"/>
</g>
<g>
	<path fill="#999999" d="M583,213.7h-92.5c-0.2,0-0.4,0.2-0.4,0.4v7.8c0,0.2,0.2,0.4,0.4,0.4H583c0.2,0,0.4-0.2,0.4-0.4v-7.8
		C583.4,213.8,583.2,213.7,583,213.7z"/>
</g>
</svg>
