<?xml version="1.0" encoding="utf-8"?>
<!-- Generator: Adobe Illustrator 18.1.1, SVG Export Plug-In . SVG Version: 6.00 Build 0)  -->
<svg version="1.1" id="Layer_1" xmlns="http://www.w3.org/2000/svg" xmlns:xlink="http://www.w3.org/1999/xlink" x="0px" y="0px"
	 viewBox="0 0 640 480" enable-background="new 0 0 640 480" xml:space="preserve">
<polygon fill="#CDCCCB" points="481.2,190.5 473.9,169.2 473.9,169.1 473.4,169.1 471.5,169.2 469.6,169.2 468.2,169.3 467.5,169.3 
	467,169.3 466.3,169.3 465.7,169.2 465.4,169.1 465.1,169 464.9,168.9 464.7,168.9 464.5,168.7 464.2,168.6 464,168.4 463.7,168.2 
	463.6,168.1 463.4,167.9 463.3,167.8 463.1,167.6 462.9,167.4 462.8,167.2 462.7,167 462.6,166.8 462.5,166.5 462.3,166.3 
	462.3,166 462.2,165.8 462.1,165.4 462.1,165.1 462,164.8 462,164.3 462,164 462.1,163.6 462.2,163.3 462.3,163 462.4,162.8 
	462.5,162.5 462.6,162.2 462.8,162 463,161.7 463.2,161.4 463.5,161.2 463.7,160.9 464,160.7 464.4,160.5 464.7,160.3 465.1,160.1 
	465.4,160 465.8,159.9 466.1,159.9 466.6,159.8 467.2,159.8 467.7,159.9 468.1,159.9 469.1,160 470.6,160.1 471.8,160.1 
	472.9,160.2 474,160.2 475.1,160.3 476.3,160.4 477.6,160.5 479,160.5 480.4,160.6 481.6,160.7 482.7,160.8 484,160.9 485.2,161 
	486.3,161 487.6,161.1 489.1,161.2 490.5,161.3 491.9,161.4 493.2,161.5 494.4,161.5 495.6,161.6 496.9,161.7 498,161.8 
	499.1,161.8 500.2,161.9 501.4,162 502.4,162.1 503.3,162.1 504.1,162.2 504.5,162.2 504.8,162.3 505.1,162.4 505.3,162.5 
	505.5,162.5 505.6,162.6 505.7,162.7 505.9,162.8 506,162.9 506.1,163.1 506.2,163.2 506.3,163.3 506.4,163.4 506.5,163.5 
	506.6,163.7 506.7,163.9 506.8,164.1 506.9,164.4 507,164.6 507,164.9 507,165.3 507,165.5 507,165.7 506.9,166.1 506.8,166.4 
	506.8,166.6 506.6,166.9 506.4,167.1 506.2,167.4 506,167.6 505.7,167.8 505.4,168 505.1,168.1 504.8,168.2 504.5,168.2 
	503.1,168.3 501.3,168.3 499.1,168.4 497.6,168.4 495.9,168.4 494.1,168.5 492.8,168.5 491.3,168.6 489.8,168.6 488.6,168.6 
	486.3,168.7 484.7,168.8 482.6,168.8 482.2,168.9 487.9,186.9 "/>
<polygon fill="#D1D2D3" points="563.8,213.6 548.7,165 547.8,163 546.5,161.4 544.9,160.3 543.7,159.8 542.2,159.4 522.3,159.4 
	522.3,151 543.8,151.2 547.7,152.3 551.3,154.4 553.2,156.3 555.1,158.8 556.6,162.1 557.4,164.4 571.8,211.1 "/>
<polygon fill="#4E4E4E" points="498.3,303.9 486.5,303.9 486.5,298.3 498.1,298.1 499.5,296.8 500.3,295 501.1,292.5 509,257.6 
	514.4,258.8 505.6,296.9 504.2,299.8 502.9,301.4 499.8,303.5 "/>
<path fill="#D1D2D3" d="M631.7,259.3c0,27.1-22,49.2-49.2,49.2c-27.1,0-49.2-22-49.2-49.2c0-27.1,22-49.2,49.2-49.2
	C609.7,210.1,631.7,232.1,631.7,259.3z"/>
<circle fill="#D1D2D3" cx="438.8" cy="259.3" r="49.2"/>
<text transform="matrix(1 0 0 1 2.2798 198.6202)" fill="#000100" font-family="'Haymaker'" font-size="72.4296">KICKSTAND</text>
<text transform="matrix(1 0 0 1 1.0654 267.126)" fill="#000100" font-family="'Haymaker'" font-size="72.4296">BICYCLES</text>
<text transform="matrix(1 0 0 1 9.1133 303.9737)" fill="#000100" font-family="'VeryFineSerif'" font-size="31.6879">BUY</text>
<text transform="matrix(1 0 0 1 97.6689 303.9737)" fill="#000100" font-family="'VeryFineSerif'" font-size="31.6879">SELL</text>
<text transform="matrix(1 0 0 1 193.603 303.9737)" fill="#000100" font-family="'VeryFineSerif'" font-size="31.6879">TRADE</text>
<text transform="matrix(1 0 0 1 331.3779 303.9737)" fill="#000100" font-family="'VeryFineSerif'" font-size="31.6879">FIX</text>
<text transform="matrix(1 0 0 1 87.8013 344.6846)" fill="#000100" font-family="'VeryFineSerif'" font-size="31.6879">CHATTANOOGA, TN</text>
<path d="M89.8,293.2c0,3-2.4,5.4-5.4,5.4s-5.4-2.4-5.4-5.4c0-3,2.4-5.4,5.4-5.4S89.8,290.2,89.8,293.2z"/>
<path d="M184.3,293.2c0,3-2.4,5.4-5.4,5.4c-3,0-5.4-2.4-5.4-5.4c0-3,2.4-5.4,5.4-5.4C181.9,287.8,184.3,290.2,184.3,293.2z"/>
<path d="M315.6,293.2c0,3-2.4,5.4-5.4,5.4c-3,0-5.4-2.4-5.4-5.4c0-3,2.4-5.4,5.4-5.4C313.2,287.8,315.6,290.2,315.6,293.2z"/>
<polygon fill="#00B2BF" points="559.6,185.5 483.4,185.5 515,259.7 "/>
<polygon fill="#E65F54" points="438.8,259.7 515,259.7 483.4,185.5 "/>
</svg>
