<?xml version="1.0" encoding="utf-8"?>
<!-- Generator: Adobe Illustrator 19.0.0, SVG Export Plug-In . SVG Version: 6.00 Build 0)  -->
<svg version="1.1" id="Layer_1" xmlns="http://www.w3.org/2000/svg" xmlns:xlink="http://www.w3.org/1999/xlink" x="0px" y="0px"
	 viewBox="-319 161 640 480" style="enable-background:new -319 161 640 480;" xml:space="preserve">
<style type="text/css">
	.st0{fill:#CDCCCB;}
	.st1{fill:#D1D2D3;}
	.st2{fill:#4E4E4E;}
	.st3{enable-background:new    ;}
	.st4{fill:#000100;}
	.st5{fill:#00B2BF;}
	.st6{fill:#E65F54;}
</style>
<polygon class="st0" points="162.2,351.5 154.9,330.2 154.9,330.1 154.4,330.1 152.5,330.2 150.6,330.2 149.2,330.3 148.5,330.3 
	148,330.3 147.3,330.3 146.7,330.2 146.4,330.1 146.1,330 145.9,329.9 145.7,329.9 145.5,329.7 145.2,329.6 145,329.4 144.7,329.2 
	144.6,329.1 144.4,328.9 144.3,328.8 144.1,328.6 143.9,328.4 143.8,328.2 143.7,328 143.6,327.8 143.5,327.5 143.3,327.3 
	143.3,327 143.2,326.8 143.1,326.4 143.1,326.1 143,325.8 143,325.3 143,325 143.1,324.6 143.2,324.3 143.3,324 143.4,323.8 
	143.5,323.5 143.6,323.2 143.8,323 144,322.7 144.2,322.4 144.5,322.2 144.7,321.9 145,321.7 145.4,321.5 145.7,321.3 146.1,321.1 
	146.4,321 146.8,320.9 147.1,320.9 147.6,320.8 148.2,320.8 148.7,320.9 149.1,320.9 150.1,321 151.6,321.1 152.8,321.1 
	153.9,321.2 155,321.2 156.1,321.3 157.3,321.4 158.6,321.5 160,321.5 161.4,321.6 162.6,321.7 163.7,321.8 165,321.9 166.2,322 
	167.3,322 168.6,322.1 170.1,322.2 171.5,322.3 172.9,322.4 174.2,322.5 175.4,322.5 176.6,322.6 177.9,322.7 179,322.8 
	180.1,322.8 181.2,322.9 182.4,323 183.4,323.1 184.3,323.1 185.1,323.2 185.5,323.2 185.8,323.3 186.1,323.4 186.3,323.5 
	186.5,323.5 186.6,323.6 186.7,323.7 186.9,323.8 187,323.9 187.1,324.1 187.2,324.2 187.3,324.3 187.4,324.4 187.5,324.5 
	187.6,324.7 187.7,324.9 187.8,325.1 187.9,325.4 188,325.6 188,325.9 188,326.3 188,326.5 188,326.7 187.9,327.1 187.8,327.4 
	187.8,327.6 187.6,327.9 187.4,328.1 187.2,328.4 187,328.6 186.7,328.8 186.4,329 186.1,329.1 185.8,329.2 185.5,329.2 
	184.1,329.3 182.3,329.3 180.1,329.4 178.6,329.4 176.9,329.4 175.1,329.5 173.8,329.5 172.3,329.6 170.8,329.6 169.6,329.6 
	167.3,329.7 165.7,329.8 163.6,329.8 163.2,329.9 168.9,347.9 "/>
<polygon class="st1" points="244.8,374.6 229.7,326 228.8,324 227.5,322.4 225.9,321.3 224.7,320.8 223.2,320.4 203.3,320.4 
	203.3,312 224.8,312.2 228.7,313.3 232.3,315.4 234.2,317.3 236.1,319.8 237.6,323.1 238.4,325.4 252.8,372.1 "/>
<polygon class="st2" points="179.3,464.9 167.5,464.9 167.5,459.3 179.1,459.1 180.5,457.8 181.3,456 182.1,453.5 190,418.6 
	195.4,419.8 186.6,457.9 185.2,460.8 183.9,462.4 180.8,464.5 "/>
<path class="st1" d="M312.7,420.3c0,27.1-22,49.2-49.2,49.2c-27.1,0-49.2-22-49.2-49.2c0-27.1,22-49.2,49.2-49.2
	C290.7,371.1,312.7,393.1,312.7,420.3z"/>
<circle class="st1" cx="119.8" cy="420.3" r="49.2"/>
<g class="st3">
	<path class="st4" d="M-269.9,359.5h-8.9l-17.2-23.3l-5.4,6.7v16.6h-7.8v-22.5l-4.4-3.9l4.4-3.8v-22.8h7.8V332l20.5-25.5h8.8
		l-19.2,23.8L-269.9,359.5z"/>
	<path class="st4" d="M-245.1,333.3l-4.4,3.9v22.5h-7.8v-22.5l-4.4-3.9l4.4-3.8v-22.9h7.8v22.9L-245.1,333.3z"/>
	<path class="st4" d="M-192.7,350.8l-9.9,8.8h-18.8l-10-8.8v-13.7l-4.4-3.9l4.4-3.8v-14.1l10-8.8h18.8l9.9,8.8v11.1h-7.8v-7.6
		l-5.5-4.6h-12.2l-5.5,4.8v28l5.5,4.8h12.2l5.5-4.6v-6.5h7.8V350.8z"/>
	<path class="st4" d="M-141.9,359.5h-8.9l-17.2-23.3l-5.4,6.7v16.6h-7.8v-22.5l-4.4-3.9l4.4-3.8v-22.8h7.8V332l20.5-25.5h8.8
		l-19.2,23.8L-141.9,359.5z"/>
	<path class="st4" d="M-95.4,350.8l-10,8.8h-18l-10-8.8v-9.6h7.8v5.9l5.5,4.8h11.4l5.5-4.8v-5.9l-5.5-4.7h-13.6l-10-8.9v-12.2
		l10-8.8h16.8l10,8.8v8.8h-7.7v-5.5l-5.2-4.4h-11l-5.2,4.4v5.5l5.1,4.5h14l10,8.8V350.8z"/>
	<path class="st4" d="M-48.6,314.3H-64v15.1l4.4,3.8l-4.4,3.8v22.5h-7.8v-22.5l-4.4-3.8l4.4-3.8v-15.1h-15.5v-7.8h38.7V314.3z"/>
	<path class="st4" d="M4.3,359.6h-8.1l-5-13.3h-21.7l-5,13.3h-8.1l8.4-22.5l-3.7-3.9l6.4-3.3l8.8-23.4h8.1L4.3,359.6z M-11.7,338.6
		l-8-21.7l-8,21.7H-11.7z"/>
	<path class="st4" d="M57.2,333.3l-4.4,3.8v22.5h-7.8l-22.2-39.3v39.3h-7.8v-22.5l-4.4-3.8l4.4-3.9v-22.8h8.2l21.7,38.2v-38.2h7.8
		v22.8L57.2,333.3z"/>
	<path class="st4" d="M107.2,350.7l-9.9,8.8H69.5v-22.5l-4.4-3.9l4.4-3.8v-22.8h27.7l9.9,8.8V350.7z M99.5,347.1v-28l-5.6-4.8H77.3
		v37.5h16.6L99.5,347.1z"/>
</g>
<g class="st3">
	<path class="st4" d="M-273.7,418.2l-8.3,9.9h-26.5v-22.5l-4.4-3.8l4.4-3.8V375h25.7l8.6,10v10.6l-4.9,5.6l5.4,5.8V418.2z
		 M-281.9,392.4v-4l-4.6-5.5h-14.3v15.1h14.3L-281.9,392.4z M-281.4,414.8v-4.4l-4.3-4.7h-15.1v14.6h15.1L-281.4,414.8z"/>
	<path class="st4" d="M-247,401.8l-4.4,3.9v22.5h-7.8v-22.5l-4.4-3.9l4.4-3.8V375h7.8v22.9L-247,401.8z"/>
	<path class="st4" d="M-194.6,419.3l-9.9,8.8h-18.8l-10-8.8v-13.7l-4.4-3.9l4.4-3.8v-14.1l10-8.8h18.8l9.9,8.8V395h-7.8v-7.6
		l-5.5-4.6h-12.2l-5.5,4.8v28l5.5,4.8h12.2l5.5-4.6v-6.5h7.8V419.3z"/>
	<path class="st4" d="M-142.4,375l-19.9,29.9v23.2h-7.8v-23.2L-190,375h8.8l15,21.9l14.8-21.9H-142.4z"/>
	<path class="st4" d="M-94.6,419.3l-9.9,8.8h-18.8l-10-8.8v-13.7l-4.4-3.9l4.4-3.8v-14.1l10-8.8h18.8l9.9,8.8V395h-7.8v-7.6
		l-5.5-4.6h-12.2l-5.5,4.8v28l5.5,4.8h12.2l5.5-4.6v-6.5h7.8V419.3z"/>
	<path class="st4" d="M-49.6,428.1h-32.1v-22.5l-4.4-3.8l4.4-3.9V375h7.8v45.3h24.3V428.1z"/>
	<path class="st4" d="M-4.4,428.1h-32.1v-22.5l-4.4-3.9l4.4-3.8V375h32.1v7.8h-24.3v15.1H-10v7.8h-18.8v14.7h24.3V428.1z"/>
	<path class="st4" d="M43.3,419.3l-10,8.8h-18l-10-8.8v-9.6h7.8v5.9l5.5,4.8h11.4l5.5-4.8v-5.9l-5.5-4.7H16.5l-10-8.9v-12.2l10-8.8
		h16.8l10,8.8v8.8h-7.7v-5.5l-5.2-4.4h-11l-5.2,4.4v5.5l5.1,4.5h14l10,8.8V419.3z"/>
</g>
<g class="st3">
	<path class="st4" d="M-307.8,442.8h11.2c1.9,0,3.6,0.9,4.9,2.8c0.6,0.9,0.9,1.9,0.9,3.1c0,0.6,0,0.9-0.1,0.9l0.1,0.1l-0.6,1.6
		c-0.6,0.9-1.3,1.7-2.2,2.3c1.2,0.4,2.3,1.2,3.2,2.5c0.6,1.1,0.9,2.1,0.9,3c0,2.2-1.2,4-3.5,5.3c-0.8,0.4-2,0.5-3.6,0.5h-11.2
		c-0.1,0-0.1,0-0.1-0.1v-1c0-0.1,0.1-0.1,0.1-0.1h2.2V444h-2.2c-0.1,0-0.1,0-0.1-0.1v-1C-307.9,442.8-307.8,442.8-307.8,442.8z
		 M-304.2,444v9.1h7.9c0.9-0.1,1.7-0.5,2.5-1.1c1-0.9,1.5-2,1.5-3.2v-0.4c0-2-1-3.4-3-4.2c-0.5-0.2-1-0.2-1.5-0.2H-304.2z
		 M-304.2,454.4v9.1h8.7c1.9,0,3.3-1,4.2-3c0.2-0.5,0.2-1,0.2-1.5v-0.2c0-2.1-1.1-3.5-3.3-4.3c-0.5-0.1-0.8-0.1-1-0.1H-304.2z"/>
	<path class="st4" d="M-286.8,442.8h5.7c0.1,0,0.1,0.1,0.1,0.1v1.3h-2.1c-0.1,0-0.1,0.1-0.1,0.1v12.9c0,1.6,0.6,3.1,1.7,4.4
		c1.5,1.4,2.9,2.1,4.1,2.1h0.4c0.1,0,0.2,0,0.2,0.1c0.1,0,0.2-0.1,0.2-0.1h0.5c1.1,0,2.3-0.6,3.8-1.7c1.1-1.2,1.8-2.4,2-3.5
		c0-0.1,0-0.4,0.1-0.9c0-4.6,0.1-8.1,0.1-10.6v-2.7c0-0.1,0-0.1-0.1-0.1h-2c-0.1,0-0.1,0-0.1-0.1v-1.2c0-0.1,0.1-0.1,0.1-0.1h5.8
		v1.3c0,0.1,0,0.1-0.1,0.1h-2.1v12.6c0,3.9-1.9,6.6-5.6,8c-1,0.3-1.8,0.4-2.7,0.4c-2.1,0-4-0.9-5.8-2.7c-1.4-1.5-2.1-3.5-2.1-6
		v-12.3c0-0.1,0-0.1-0.1-0.1h-2c-0.1,0-0.1,0-0.1-0.1v-1.2C-286.9,442.8-286.9,442.8-286.8,442.8z"/>
	<path class="st4" d="M-266.2,442.7h5.7c0.1,0,0.1,0.1,0.1,0.1v1.2c0,0.1,0,0.1-0.1,0.1h-2.1l6.3,11.5c0.1-0.1,2.2-3.8,6.3-11.3
		v-0.1h-2.1c-0.1,0-0.1,0-0.1-0.1v-1.1c0-0.1,0.1-0.1,0.2-0.2h5.7c0.1,0,0.1,0.1,0.1,0.1v1.2c0,0.1,0,0.1-0.1,0.1h-2.2l-6.6,11.9
		c-0.2,0.4-0.4,0.7-0.4,0.9v6.6h1.5c0.1,0,0.1,0.1,0.2,0.2v1.1c0,0.1-0.1,0.1-0.2,0.2h-4.6c-0.1,0-0.1-0.1-0.2-0.2v-1.1
		c0-0.1,0.1-0.1,0.2-0.2h1.5v-6.5c0-0.1,0-0.2,0.1-0.2c0-0.1-1.9-3.5-5.6-10.1c-0.9-1.6-1.4-2.5-1.4-2.6h-2.2l-0.2-0.1l0.1-0.3v-0.6
		l-0.1-0.3L-266.2,442.7z"/>
</g>
<g class="st3">
	<path class="st4" d="M-214.4,442.8h7.2c0.1,0,0.1,0.1,0.1,0.1v4c0,0.1,0,0.1-0.1,0.1h-1.2c-0.1,0-0.1,0-0.1-0.1v-2.7h-5.3
		c-2.5,0-4.2,1-5,2.9c-0.1,0.3-0.2,0.8-0.3,1.5c0,1.9,1.1,3.3,3.2,4.2c0.8,0.2,2.6,0.3,5.4,0.3c1.4,0.3,2.4,0.8,3.2,1.5
		c1.4,1.3,2.1,2.8,2.1,4.3v0.3c0,2.3-1.2,4-3.5,5.3c-0.7,0.4-1.6,0.5-2.7,0.5h-6.1c-0.6,0-1.7,0-3.2,0.1l-0.1-0.1v-4
		c0-0.1,0.1-0.1,0.1-0.1h1.1c0.1,0,0.1,0,0.1,0.1v2.7h7.9c2.1,0,3.6-1,4.5-2.9c0.2-0.7,0.4-1.2,0.4-1.6c0-1.5-0.7-2.7-2.2-3.8
		c-0.8-0.6-2.7-0.8-5.6-0.8c-1.1-0.1-2.3-0.4-3.4-0.9c-1.9-1.3-2.8-2.9-2.8-5c0-2.4,1.4-4.2,4.1-5.4
		C-215.6,442.9-214.9,442.8-214.4,442.8z"/>
	<path class="st4" d="M-203.3,442.6h15.8c0.1,0,0.1,0.1,0.1,0.1v4.1c0,0.1,0,0.1-0.1,0.1h-1.1c-0.1,0-0.1,0-0.1-0.1v-2.9h-11.3v9
		h7.2v-1.4c0-0.1,0.1-0.1,0.1-0.1h1.2c0.1,0,0.1,0.1,0.1,0.1v4.1c0,0.1,0,0.1-0.1,0.1h-1.2c-0.1,0-0.1,0-0.1-0.1v-1.5h-7.2v9.3h11.3
		v-2.7c0-0.1,0.1-0.1,0.1-0.1h1.1c0.1,0,0.1,0.1,0.1,0.1v4c0,0.1,0,0.1-0.1,0.1h-15.8c-0.1,0-0.1,0-0.1-0.1v-1
		c0-0.1,0.1-0.1,0.1-0.1h1.9v-19.8h-1.9c-0.1,0-0.1,0-0.1-0.1v-1.1C-203.5,442.7-203.4,442.6-203.3,442.6z"/>
	<path class="st4" d="M-186.2,442.8h5.4c0.1,0,0.1,0.1,0.1,0.1v1.2c0,0.1,0,0.1-0.1,0.1h-1.8l-0.1-0.1l-0.1,0.1v19.2h11.2v-2.7
		c0-0.1,0.1-0.1,0.1-0.1h1.2c0.1,0,0.1,0.1,0.1,0.1v4c0,0.1,0,0.1-0.1,0.1h-15.9c-0.1,0-0.1,0-0.1-0.1v-1.2c0-0.1,0.1-0.1,0.1-0.1h2
		v-19.2l-0.1-0.1l-0.1,0.1h-1.8c-0.1,0-0.1,0-0.1-0.1v-1.2C-186.3,442.8-186.3,442.8-186.2,442.8z"/>
	<path class="st4" d="M-168.5,442.8h5.4c0.1,0,0.1,0.1,0.1,0.1v1.2c0,0.1,0,0.1-0.1,0.1h-1.8l-0.1-0.1l-0.1,0.1v19.2h11.2v-2.7
		c0-0.1,0.1-0.1,0.1-0.1h1.2c0.1,0,0.1,0.1,0.1,0.1v4c0,0.1,0,0.1-0.1,0.1h-15.9c-0.1,0-0.1,0-0.1-0.1v-1.2c0-0.1,0.1-0.1,0.1-0.1h2
		v-19.2l-0.1-0.1l-0.1,0.1h-1.8c-0.1,0-0.1,0-0.1-0.1v-1.2C-168.6,442.8-168.5,442.8-168.5,442.8z"/>
</g>
<g class="st3">
	<path class="st4" d="M-124.8,442.8h17.5c0.1,0,0.1,0.1,0.1,0.1v4.1c0,0.1,0,0.1-0.1,0.1h-1.1c-0.1,0-0.1,0-0.1-0.1v-2.7h-6.7v19.1
		l-0.1,0.1l0.1,0.1h1.9c0.1,0,0.1,0.1,0.1,0.1v1.2c0,0.1,0,0.1-0.1,0.1h-5.4c-0.1,0-0.1,0-0.1-0.1v-1.2c0-0.1,0.1-0.1,0.1-0.1h2
		v-19.3h-6.7v2.7c0,0.1,0,0.1-0.1,0.1h-1.1c-0.1,0-0.1,0-0.1-0.1v-4.1C-124.9,442.8-124.9,442.8-124.8,442.8z"/>
	<path class="st4" d="M-106.3,442.8H-93c2.2,0,4,1.1,5.3,3.2c0.5,1,0.7,1.9,0.7,2.5v0.7c0,2-1.1,3.7-3.2,5.1
		c1.2,0.7,2.1,1.7,2.7,3.1c0.2,0.7,0.4,1.3,0.4,1.7v4.5h2c0.1,0,0.1,0.1,0.1,0.1v1.2c0,0.1,0,0.1-0.1,0.1h-5.5c-0.1,0-0.1,0-0.1-0.1
		v-1.2c0-0.1,0.1-0.1,0.1-0.1h1.9l0.1-0.1l-0.1-0.1v-4.1c0,0,0-0.1,0.1-0.1c-0.2-1.1-0.6-2-1.2-2.7c-1-1-2.2-1.5-3.5-1.5h-9.6
		l-0.1,0.1l0.1,0.1v8.2l-0.1,0.1l0.1,0.1h1.9c0.1,0,0.1,0.1,0.1,0.1v1.2c0,0.1,0,0.1-0.1,0.1h-5.4c-0.1,0-0.1,0-0.1-0.1v-1.2
		c0-0.1,0.1-0.1,0.1-0.1h2v-19.3h-2c-0.1,0-0.1,0-0.1-0.1v-1.2C-106.4,442.8-106.4,442.8-106.3,442.8z M-102.9,444.2v9.2l-0.1,0.1
		l0.1,0.1h8.7c2,0,3.4-0.4,4.2-1.3c0.8-0.8,1.2-1.7,1.4-2.6l-0.1-0.1c0-0.1,0.1-0.2,0.1-0.2l-0.1-0.1v-0.7l-0.1-0.3h0.1
		c-0.2-1.1-0.8-2.1-1.7-2.9c-1.1-0.7-1.9-1-2.6-1h-10L-102.9,444.2z"/>
	<path class="st4" d="M-77.6,442.8h5.4c0.1,0,0.1,0.1,0.1,0.1v1.1c0,0.1,0,0.1-0.1,0.1h-1.4c0,0.1,1.9,5.9,5.8,17.5
		c0.4,1.2,0.6,1.9,0.7,2h2c0.1,0,0.1,0.1,0.1,0.1v1.2c0,0.1,0,0.1-0.1,0.1h-5.4c-0.1,0-0.1,0-0.1-0.1v-1.2c0-0.1,0.1-0.1,0.1-0.1
		h1.9c-1-3-1.5-4.6-1.6-4.7h-9.4c-0.1,0-0.6,1.5-1.5,4.6v0.1h1.9c0.1,0,0.1,0.1,0.2,0.2v1c0,0.1-0.1,0.1-0.2,0.2h-5.4
		c-0.1,0-0.1,0-0.1-0.1v-1.2c0-0.1,0.1-0.1,0.1-0.1h2l6.5-19.4h-1.5c-0.1,0-0.1,0-0.1-0.1v-1.1C-77.7,442.8-77.6,442.8-77.6,442.8z
		 M-74.9,444.9c-0.2,0.9-1.7,5.1-4.3,12.7h8.7l-4.3-12.7H-74.9z"/>
	<path class="st4" d="M-64.5,442.8h7.4c3.1,0,5.7,1,8,2.9c1.7,1.7,2.7,3,3,4.1c0.5,1.3,0.8,2.5,0.8,3.4v1.3c0,2.3-1.1,4.6-3.2,7
		c-2.2,2.3-5.1,3.5-8.4,3.5c-0.4,0-0.6-0.1-0.9-0.1h-6.8c-0.1,0-0.1,0-0.1-0.1v-1.1c0-0.1,0.1-0.1,0.1-0.1h2v-19.3h-2
		c-0.1,0-0.1,0-0.1-0.1v-1.2C-64.6,442.8-64.5,442.8-64.5,442.8z M-61,444.3v19.3h3.2c3.8,0,6.6-1,8.3-3c1.3-1.2,2.2-2.9,2.7-5
		c0.1-0.6,0.1-1,0.1-1.2v-0.8c0-1.5-0.5-3.1-1.6-4.8c-2.2-2.9-5-4.4-8.4-4.4H-61z"/>
	<path class="st4" d="M-43.5,442.6h15.8c0.1,0,0.1,0.1,0.1,0.1v4.1c0,0.1,0,0.1-0.1,0.1h-1.1c-0.1,0-0.1,0-0.1-0.1v-2.9h-11.3v9h7.2
		v-1.4c0-0.1,0.1-0.1,0.1-0.1h1.2c0.1,0,0.1,0.1,0.1,0.1v4.1c0,0.1,0,0.1-0.1,0.1h-1.2c-0.1,0-0.1,0-0.1-0.1v-1.5h-7.2v9.3h11.3
		v-2.7c0-0.1,0.1-0.1,0.1-0.1h1.1c0.1,0,0.1,0.1,0.1,0.1v4c0,0.1,0,0.1-0.1,0.1h-15.8c-0.1,0-0.1,0-0.1-0.1v-1
		c0-0.1,0.1-0.1,0.1-0.1h1.9v-19.8h-1.9c-0.1,0-0.1,0-0.1-0.1v-1.1C-43.6,442.7-43.5,442.6-43.5,442.6z"/>
</g>
<g class="st3">
	<path class="st4" d="M13.4,442.8h15.5c0.1,0,0.1,0.1,0.1,0.1v4.1c0,0.1,0,0.1-0.1,0.1h-1.1c-0.1,0-0.1,0-0.1-0.1v-2.7l-0.1-0.1
		l-0.1,0.1H17.1l-0.1-0.1l-0.1,0.1v8.3c0,0.1,0.1,0.1,0.1,0.1h6.4c0.1,0,0.1,0,0.1-0.1v-1.1c0-0.1,0.1-0.1,0.1-0.1h1.1
		c0.1,0,0.1,0.1,0.1,0.1v4.1c0,0.1,0,0.1-0.1,0.1h-1.1c-0.1,0-0.1,0-0.1-0.1v-1.5h-6.7v9.3h2c0.1,0,0.1,0.1,0.1,0.1v1.2
		c0,0.1,0,0.1-0.1,0.1h-5.4c-0.1,0-0.1,0-0.1-0.1v-1.2c0-0.1,0.1-0.1,0.1-0.1h2v-19.3h-2c-0.1,0-0.1-0.1-0.2-0.2v-1.2
		C13.3,442.8,13.4,442.8,13.4,442.8z"/>
	<path class="st4" d="M30.4,442.8h5.4c0.1,0,0.1,0.1,0.1,0.1v1.2c0,0.1,0,0.1-0.1,0.1h-2v19.3h2c0.1,0,0.1,0.1,0.1,0.1v1.2
		c0,0.1,0,0.1-0.1,0.1h-5.4c-0.1,0-0.1,0-0.1-0.1v-1.2c0-0.1,0.1-0.1,0.1-0.1h1.9l0.1-0.1l-0.1-0.1v-18.9c0,0,0-0.1,0.1-0.1
		c0-0.1-0.1-0.1-0.1-0.2l-0.1,0.1h-1.8c-0.1,0-0.1,0-0.1-0.1v-1.2C30.3,442.8,30.4,442.8,30.4,442.8z"/>
	<path class="st4" d="M37.1,442.7h6.5c0.1,0,0.1,0.1,0.1,0.1v1.1c0,0.1,0,0.1-0.1,0.1h-2.4v0.1l5.6,8.3c0.1,0,1.9-2.8,5.5-8.3v-0.1
		h-2.4c-0.1,0-0.1,0-0.1-0.1v-1.1c0-0.1,0.1-0.1,0.1-0.1h6.4c0.1,0,0.1,0.1,0.2,0.2v1c0,0.1-0.1,0.1-0.2,0.2h-2.4
		c-0.8,1.1-2.9,4.3-6.3,9.6l6.7,10h2.5c0.1,0,0.1,0.1,0.1,0.1v1.1c0,0.1,0,0.1-0.1,0.1h-6.4c-0.1,0-0.1,0-0.1-0.1v-1
		c0-0.1,0.1-0.1,0.1-0.1h2.2c0.1,0,0.1,0,0.1-0.1c-0.7-1-2.7-3.9-5.9-8.6h-0.1c-0.2,0.2-1.4,2-3.4,5.3c-1.5,2.2-2.2,3.3-2.2,3.5h2.4
		c0.1,0,0.1,0.1,0.1,0.1v1c0,0.1,0,0.1-0.1,0.1h-6.5c-0.1,0-0.1,0-0.1-0.1v-1.1c0-0.1,0.1-0.1,0.1-0.1h2.4c0.4-0.6,2.6-3.9,6.5-10
		l-6.4-9.6h-2.5c-0.1,0-0.1,0-0.1-0.1v-1.1C36.9,442.7,37,442.7,37.1,442.7z"/>
</g>
<g class="st3">
	<path class="st4" d="M-219.4,483h0.5c2.4,0,4.8,1,7.1,2.9h0.1l-0.1-0.1v-2.4c0-0.1,0.1-0.1,0.2-0.2h0.8l0.3-0.1l0.1,0.2v5.2
		c0,0.1,0,0.1-0.1,0.1h-1.1c-0.1,0-0.1-0.1-0.1-0.2c0-0.1-0.3-0.6-0.7-1.4s-2-1.6-4.5-2.4c-0.5-0.1-1.2-0.2-2-0.2
		c-3.6,0-6.4,1.8-8.4,5.3c-0.8,1.6-1.2,3.2-1.2,4.8c0,3.1,1.3,5.7,3.8,8c1.1,0.8,2.2,1.4,3.2,1.7c0.9,0.2,1.5,0.3,1.8,0.3h1.5
		c1.4,0,3.1-0.6,5-1.9c0.6-0.5,1.2-1.1,1.9-1.9h1.5c0.1,0,0.1,0,0.1,0.1c-1.2,2-3,3.5-5.2,4.4c-1.3,0.5-2.6,0.8-4,0.8
		c-3.2,0-6-1.4-8.5-4.2c-1.3-1.8-2.1-3.7-2.4-5.5c0-0.2,0-0.4-0.1-0.5c0,0,0-0.1,0.1-0.1c0-0.1-0.1-0.1-0.1-0.2s0-0.1,0.1-0.1
		l-0.1-0.3v-1.5c0-0.1,0-0.2,0.1-0.2l-0.1-0.1c0.4-2.2,0.9-4,1.8-5.2c1.4-2.2,3.3-3.7,5.8-4.7C-221.2,483.2-220.2,483-219.4,483z"/>
	<path class="st4" d="M-208,483.5h5.4c0.1,0,0.1,0.1,0.1,0.1v1.2c0,0.1,0,0.1-0.1,0.1h-1.8l-0.1-0.1l-0.1,0.1v8.7h13.6v-8.8
		l-0.1,0.1h-1.9c-0.1,0-0.1-0.1-0.2-0.2v-1.2c0-0.1,0.1-0.1,0.1-0.1h5.5c0.1,0,0.1,0.1,0.1,0.1v1.2c0,0.1-0.1,0.1-0.2,0.2h-1.9v19.3
		h2c0.1,0,0.1,0.1,0.1,0.1v1.2c0,0.1,0,0.1-0.1,0.1h-5.5c-0.1,0-0.1,0-0.1-0.1v-1.2c0-0.1,0.1-0.1,0.1-0.1h2v-9h-13.6v9h2
		c0.1,0,0.1,0.1,0.1,0.1v1.2c0,0.1,0,0.1-0.1,0.1h-5.4c-0.1,0-0.1,0-0.1-0.1v-1.2c0-0.1,0.1-0.1,0.1-0.1h2v-19.3l-0.1,0.1h-1.9
		c-0.1,0-0.1,0-0.1-0.1v-1.2C-208.1,483.5-208.1,483.5-208,483.5z"/>
	<path class="st4" d="M-180.1,483.5h5.4c0.1,0,0.1,0.1,0.1,0.1v1.1c0,0.1,0,0.1-0.1,0.1h-1.4c0,0.1,1.9,5.9,5.8,17.5
		c0.4,1.2,0.6,1.9,0.7,2h2c0.1,0,0.1,0.1,0.1,0.1v1.2c0,0.1,0,0.1-0.1,0.1h-5.4c-0.1,0-0.1,0-0.1-0.1v-1.2c0-0.1,0.1-0.1,0.1-0.1
		h1.9c-1-3-1.5-4.6-1.6-4.7h-9.4c-0.1,0-0.6,1.5-1.5,4.6v0.1h1.9c0.1,0,0.1,0.1,0.2,0.2v1c0,0.1-0.1,0.1-0.2,0.2h-5.4
		c-0.1,0-0.1,0-0.1-0.1v-1.2c0-0.1,0.1-0.1,0.1-0.1h2l6.5-19.4h-1.5c-0.1,0-0.1,0-0.1-0.1v-1.1
		C-180.2,483.6-180.1,483.5-180.1,483.5z M-177.4,485.6c-0.2,0.9-1.7,5.1-4.3,12.7h8.7l-4.3-12.7H-177.4z"/>
	<path class="st4" d="M-167.1,483.5h17.5c0.1,0,0.1,0.1,0.1,0.1v4.1c0,0.1,0,0.1-0.1,0.1h-1.1c-0.1,0-0.1,0-0.1-0.1V485h-6.7v19.1
		l-0.1,0.1l0.1,0.1h1.9c0.1,0,0.1,0.1,0.1,0.1v1.2c0,0.1,0,0.1-0.1,0.1h-5.4c-0.1,0-0.1,0-0.1-0.1v-1.2c0-0.1,0.1-0.1,0.1-0.1h2V485
		h-6.7v2.7c0,0.1,0,0.1-0.1,0.1h-1.1c-0.1,0-0.1,0-0.1-0.1v-4.1C-167.2,483.5-167.2,483.5-167.1,483.5z"/>
	<path class="st4" d="M-148.6,483.5h17.5c0.1,0,0.1,0.1,0.1,0.1v4.1c0,0.1,0,0.1-0.1,0.1h-1.1c-0.1,0-0.1,0-0.1-0.1V485h-6.7v19.1
		l-0.1,0.1l0.1,0.1h1.9c0.1,0,0.1,0.1,0.1,0.1v1.2c0,0.1,0,0.1-0.1,0.1h-5.4c-0.1,0-0.1,0-0.1-0.1v-1.2c0-0.1,0.1-0.1,0.1-0.1h2V485
		h-6.7v2.7c0,0.1,0,0.1-0.1,0.1h-1.1c-0.1,0-0.1,0-0.1-0.1v-4.1C-148.8,483.5-148.7,483.5-148.6,483.5z"/>
	<path class="st4" d="M-124.2,483.5h5.4c0.1,0,0.1,0.1,0.1,0.1v1.1c0,0.1,0,0.1-0.1,0.1h-1.4c0,0.1,1.9,5.9,5.8,17.5
		c0.4,1.2,0.6,1.9,0.7,2h2c0.1,0,0.1,0.1,0.1,0.1v1.2c0,0.1,0,0.1-0.1,0.1h-5.4c-0.1,0-0.1,0-0.1-0.1v-1.2c0-0.1,0.1-0.1,0.1-0.1
		h1.9c-1-3-1.5-4.6-1.6-4.7h-9.4c-0.1,0-0.6,1.5-1.5,4.6v0.1h1.9c0.1,0,0.1,0.1,0.2,0.2v1c0,0.1-0.1,0.1-0.2,0.2h-5.4
		c-0.1,0-0.1,0-0.1-0.1v-1.2c0-0.1,0.1-0.1,0.1-0.1h2l6.5-19.4h-1.5c-0.1,0-0.1,0-0.1-0.1v-1.1
		C-124.3,483.6-124.2,483.5-124.2,483.5z M-121.5,485.6c-0.2,0.9-1.7,5.1-4.3,12.7h8.7l-4.3-12.7H-121.5z"/>
	<path class="st4" d="M-111.1,483.5h5.5c0.1,0,0.1,0.1,0.1,0.1v1.2c0,0.1,0,0.1-0.1,0.1h-1.4c7.2,11.1,10.9,16.9,11.2,17.3V485
		l-0.1-0.1l-0.1,0.1h-1.8c-0.1,0-0.1,0-0.1-0.1v-1.2c0-0.1,0.1-0.1,0.1-0.1h5.4c0.1,0,0.1,0.1,0.1,0.1v1c0,0.2-0.1,0.3-0.2,0.4h-1.8
		l-0.1-0.1c0,0.1,0,0.1-0.1,0.1l0.1,0.1v18.9l-0.1,0.1l0.1,0.1h1.9c0.1,0,0.1,0.1,0.1,0.1v1.1c0,0.1-0.1,0.1-0.2,0.2h-5.5v-1.3
		c0-0.1,0.1-0.1,0.1-0.1h1.4c-7.2-11.1-10.9-16.9-11.2-17.4h-0.1v17.4h2c0.1,0,0.1,0.1,0.1,0.1v1.2c0,0.1,0,0.1-0.1,0.1h-5.5
		c-0.1,0-0.1,0-0.1-0.1v-1.2c0-0.1,0.1-0.1,0.1-0.1h2V485h-2c-0.1,0-0.1,0-0.1-0.1v-1.2C-111.2,483.5-111.1,483.5-111.1,483.5z"/>
	<path class="st4" d="M-78.8,482.4h0.2c3.4,0,6.3,1.6,8.7,4.7c1.5,2.3,2.3,4.7,2.3,7.1v0.6c0,3-1.1,5.8-3.3,8.3
		c-2.3,2.4-4.9,3.5-7.9,3.5c-3.3,0-6.1-1.5-8.6-4.5c-1.7-2.5-2.5-4.8-2.5-7.1v-0.9c0-2.3,0.7-4.6,2.2-6.9c0.8-1.1,1.9-2.2,3.2-3.2
		C-82.5,482.9-80.6,482.4-78.8,482.4z M-88.2,494.6c0,3.4,1.4,6.2,4.1,8.4c1.7,1.2,3.5,1.9,5.4,1.9c2.8,0,5.2-1.2,7.3-3.7
		c1.5-2.1,2.2-4.1,2.2-6.2v-1.1c0-2-0.8-4.1-2.4-6.3c-2.1-2.3-4.4-3.5-6.9-3.5h-0.2c-2.6,0-4.8,1-6.8,3.1
		C-87.3,489.3-88.2,491.7-88.2,494.6z"/>
	<path class="st4" d="M-53.8,482.4h0.2c3.4,0,6.3,1.6,8.7,4.7c1.5,2.3,2.3,4.7,2.3,7.1v0.6c0,3-1.1,5.8-3.3,8.3
		c-2.3,2.4-4.9,3.5-7.9,3.5c-3.3,0-6.1-1.5-8.6-4.5c-1.7-2.5-2.5-4.8-2.5-7.1v-0.9c0-2.3,0.7-4.6,2.2-6.9c0.8-1.1,1.9-2.2,3.2-3.2
		C-57.5,482.9-55.7,482.4-53.8,482.4z M-63.2,494.6c0,3.4,1.4,6.2,4.1,8.4c1.7,1.2,3.5,1.9,5.4,1.9c2.8,0,5.2-1.2,7.3-3.7
		c1.5-2.1,2.2-4.1,2.2-6.2v-1.1c0-2-0.8-4.1-2.4-6.3c-2.1-2.3-4.4-3.5-6.9-3.5h-0.2c-2.6,0-4.8,1-6.8,3.1
		C-62.3,489.3-63.2,491.7-63.2,494.6z"/>
	<path class="st4" d="M-29.5,482.5h0.2c2.6,0,5,1,7.2,3v-2.6l0.1-0.2l0.3,0h0.6l0.3,0l0.1,0.2v5.2c0,0.1,0,0.1-0.1,0.1h-1.2
		c-0.1,0-0.1-0.2-0.2-0.6c-2-2.4-4.4-3.6-7.3-3.6c-3,0-5.5,1.3-7.6,4c-1.3,1.9-1.9,3.9-1.9,6.1c0,2.5,0.8,4.8,2.5,6.9
		c2.1,2.2,4.2,3.3,6.4,3.3h1.4c1.4,0,3-0.6,4.8-1.7c1.2-1,1.9-1.9,2.3-2.9c0.3-0.9,0.5-1.5,0.5-2V496l-0.1-0.1l-0.1,0h-9.2
		c-0.1,0-0.1,0-0.1-0.1v-1.1c0-0.1,0.1-0.1,0.1-0.1h10.6c0.1,0,0.1,0.1,0.1,0.1v11c0,0.1,0,0.1-0.1,0.1h-1.1c-0.1,0-0.1,0-0.1-0.1
		v-4.1c-2.4,2.7-5.2,4.1-8.4,4.1c-2.7,0-5.2-1-7.5-3.1c-1.5-1.5-2.6-3.6-3.3-6.3c-0.1-0.6-0.1-0.9-0.1-1.2v-2c0-2,0.9-4.2,2.7-6.7
		C-35.2,483.8-32.5,482.5-29.5,482.5z"/>
	<path class="st4" d="M-11.8,483.5h5.4c0.1,0,0.1,0.1,0.1,0.1v1.1c0,0.1,0,0.1-0.1,0.1h-1.4c0,0.1,1.9,5.9,5.8,17.5
		c0.4,1.2,0.6,1.9,0.7,2h2c0.1,0,0.1,0.1,0.1,0.1v1.2c0,0.1,0,0.1-0.1,0.1h-5.4c-0.1,0-0.1,0-0.1-0.1v-1.2c0-0.1,0.1-0.1,0.1-0.1
		h1.9c-1-3-1.5-4.6-1.6-4.7h-9.4c-0.1,0-0.6,1.5-1.5,4.6v0.1h1.9c0.1,0,0.1,0.1,0.2,0.2v1c0,0.1-0.1,0.1-0.2,0.2h-5.4
		c-0.1,0-0.1,0-0.1-0.1v-1.2c0-0.1,0.1-0.1,0.1-0.1h2l6.5-19.4h-1.5c-0.1,0-0.1,0-0.1-0.1v-1.1C-12,483.6-11.9,483.5-11.8,483.5z
		 M-9.2,485.6c-0.2,0.9-1.7,5.1-4.3,12.7h8.7l-4.3-12.7H-9.2z"/>
	<path class="st4" d="M4,501.4h0.3c0.6,0,1,0.4,1.1,1.2v2.1c-0.6,1.5-1.1,2.5-1.4,3H3.3v-0.1l0.5-2H3.7c-0.6,0-0.9-0.4-0.9-1.2v-1.5
		C2.9,501.9,3.2,501.4,4,501.4z"/>
	<path class="st4" d="M19,483.5h17.5c0.1,0,0.1,0.1,0.1,0.1v4.1c0,0.1,0,0.1-0.1,0.1h-1.1c-0.1,0-0.1,0-0.1-0.1V485h-6.7v19.1
		l-0.1,0.1l0.1,0.1h1.9c0.1,0,0.1,0.1,0.1,0.1v1.2c0,0.1,0,0.1-0.1,0.1H25c-0.1,0-0.1,0-0.1-0.1v-1.2c0-0.1,0.1-0.1,0.1-0.1h2V485
		h-6.7v2.7c0,0.1,0,0.1-0.1,0.1H19c-0.1,0-0.1,0-0.1-0.1v-4.1C18.9,483.5,18.9,483.5,19,483.5z"/>
	<path class="st4" d="M37.6,483.5h5.5c0.1,0,0.1,0.1,0.1,0.1v1.2c0,0.1,0,0.1-0.1,0.1h-1.4c7.2,11.1,10.9,16.9,11.2,17.3V485
		l-0.1-0.1l-0.1,0.1H51c-0.1,0-0.1,0-0.1-0.1v-1.2c0-0.1,0.1-0.1,0.1-0.1h5.4c0.1,0,0.1,0.1,0.1,0.1v1c0,0.2-0.1,0.3-0.2,0.4h-1.8
		l-0.1-0.1c0,0.1,0,0.1-0.1,0.1l0.1,0.1v18.9l-0.1,0.1l0.1,0.1h1.9c0.1,0,0.1,0.1,0.1,0.1v1.1c0,0.1-0.1,0.1-0.2,0.2h-5.5v-1.3
		c0-0.1,0.1-0.1,0.1-0.1h1.4c-7.2-11.1-10.9-16.9-11.2-17.4h-0.1v17.4h2c0.1,0,0.1,0.1,0.1,0.1v1.2c0,0.1,0,0.1-0.1,0.1h-5.5
		c-0.1,0-0.1,0-0.1-0.1v-1.2c0-0.1,0.1-0.1,0.1-0.1h2V485h-2c-0.1,0-0.1,0-0.1-0.1v-1.2C37.5,483.5,37.6,483.5,37.6,483.5z"/>
</g>
<path d="M-229.2,454.2c0,3-2.4,5.4-5.4,5.4s-5.4-2.4-5.4-5.4s2.4-5.4,5.4-5.4S-229.2,451.2-229.2,454.2z"/>
<path d="M-134.7,454.2c0,3-2.4,5.4-5.4,5.4s-5.4-2.4-5.4-5.4s2.4-5.4,5.4-5.4C-137.1,448.8-134.7,451.2-134.7,454.2z"/>
<path d="M-3.4,454.2c0,3-2.4,5.4-5.4,5.4s-5.4-2.4-5.4-5.4s2.4-5.4,5.4-5.4C-5.8,448.8-3.4,451.2-3.4,454.2z"/>
<polygon class="st5" points="240.6,346.5 164.4,346.5 196,420.7 "/>
<polygon class="st6" points="119.8,420.7 196,420.7 164.4,346.5 "/>
</svg>
